<svg width="37" height="37" viewBox="0 0 37 37" fill="none" xmlns="http://www.w3.org/2000/svg">
<path d="M19.5735 20.5732L28.0247 20.5732C28.6915 20.5732 29.232 20.0327 29.232 19.3659C29.232 18.6991 28.6915 18.1586 28.0247 18.1585L19.5735 18.1586L19.5735 9.70744C19.5734 9.04064 19.033 8.50016 18.3662 8.50011C17.6994 8.50011 17.1589 9.04064 17.1588 9.70744L17.1588 18.1586L8.70769 18.1586C8.04099 18.1585 7.50041 18.6991 7.50036 19.3659C7.50041 20.0327 8.04089 20.5732 8.70769 20.5732L17.1589 20.5732L17.1589 29.0243C17.1589 29.6911 17.6994 30.2316 18.3662 30.2317C19.033 30.2317 19.5735 29.6912 19.5735 29.0243L19.5735 20.5732Z" fill="#EFF1F5"/>
<circle cx="18.5" cy="18.5" r="17.5" stroke="#EFF1F5" stroke-width="2"/>
</svg>
