<svg width="30" height="30" viewBox="0 0 30 30" fill="white" xmlns="http://www.w3.org/2000/svg">
<g clip-path="url(#clip0_2962_51516)">
<path d="M15.9846 11.449C15.7418 11.449 15.5449 11.646 15.5449 11.8889V13.0914C15.5449 13.3343 15.7418 13.5311 15.9846 13.5311C16.2274 13.5311 16.4245 13.3343 16.4245 13.0914V11.8889C16.4245 11.646 16.2274 11.449 15.9846 11.449Z" fill="#6B8795"/>
<path d="M8.98997 22.1199H8.40816C8.28845 22.1199 8.19141 22.2169 8.19141 22.3369V22.7569C8.19141 22.8766 8.28845 22.9738 8.40816 22.9738H8.98997C9.10991 22.9738 9.20695 22.8768 9.20695 22.7569V22.3369C9.20695 22.2169 9.10991 22.1199 8.98997 22.1199Z" fill="#6B8795"/>
<path d="M14.0439 11.6362H13.4621C13.3424 11.6362 13.2451 11.7333 13.2451 11.8532V12.2732C13.2451 12.3931 13.3422 12.4902 13.4621 12.4902H14.0439C14.1636 12.4902 14.2609 12.3931 14.2609 12.2732V11.8532C14.2609 11.7333 14.1636 11.6362 14.0439 11.6362Z" fill="#6B8795"/>
<path d="M17.7267 12.4902H18.3086C18.4283 12.4902 18.5255 12.3931 18.5255 12.2732V11.8532C18.5255 11.7333 18.4283 11.6362 18.3086 11.6362H17.7267C17.607 11.6362 17.5098 11.7333 17.5098 11.8532V12.2732C17.5098 12.3929 17.6068 12.4902 17.7267 12.4902Z" fill="#6B8795"/>
<path d="M17.7267 14.2768H18.3086C18.4283 14.2768 18.5255 14.1798 18.5255 14.0598V13.6398C18.5255 13.5201 18.4283 13.4229 18.3086 13.4229H17.7267C17.607 13.4229 17.5098 13.5199 17.5098 13.6398V14.0598C17.5098 14.1798 17.6068 14.2768 17.7267 14.2768Z" fill="#6B8795"/>
<path d="M10.8222 22.1199H10.2404C10.1207 22.1199 10.0234 22.2169 10.0234 22.3369V22.7569C10.0234 22.8766 10.1207 22.9738 10.2404 22.9738H10.8222C10.9422 22.9738 11.0392 22.8768 11.0392 22.7569V22.3369C11.0392 22.2169 10.9422 22.1199 10.8222 22.1199Z" fill="#6B8795"/>
<path d="M8.98997 23.8882H8.40816C8.28845 23.8882 8.19141 23.9855 8.19141 24.1052V24.5252C8.19141 24.6451 8.28845 24.7421 8.40816 24.7421H8.98997C9.10991 24.7421 9.20695 24.6451 9.20695 24.5252V24.1052C9.20695 23.9855 9.10991 23.8882 8.98997 23.8882Z" fill="#6B8795"/>
<path d="M10.8222 23.8882H10.2404C10.1207 23.8882 10.0234 23.9855 10.0234 24.1052V24.5252C10.0234 24.6451 10.1207 24.7421 10.2404 24.7421H10.8222C10.9422 24.7421 11.0392 24.6451 11.0392 24.5252V24.1052C11.0392 23.9855 10.9422 23.8882 10.8222 23.8882Z" fill="#6B8795"/>
<path d="M8.98997 25.6567H8.40816C8.28845 25.6567 8.19141 25.7538 8.19141 25.8737V26.2937C8.19141 26.4134 8.28845 26.5107 8.40816 26.5107H8.98997C9.10991 26.5107 9.20695 26.4137 9.20695 26.2937V25.8737C9.20695 25.7538 9.10991 25.6567 8.98997 25.6567Z" fill="#6B8795"/>
<path d="M10.8222 25.6567H10.2404C10.1207 25.6567 10.0234 25.7538 10.0234 25.8737V26.2937C10.0234 26.4134 10.1207 26.5107 10.2404 26.5107H10.8222C10.9422 26.5107 11.0392 26.4137 11.0392 26.2937V25.8737C11.0392 25.7538 10.9422 25.6567 10.8222 25.6567Z" fill="#6B8795"/>
<path d="M8.98997 27.425H8.40816C8.28845 27.425 8.19141 27.5223 8.19141 27.642V28.0623C8.19141 28.182 8.28845 28.279 8.40816 28.279H8.98997C9.10991 28.279 9.20695 28.182 9.20695 28.0623V27.642C9.20695 27.5223 9.10991 27.425 8.98997 27.425Z" fill="#6B8795"/>
<path d="M10.8222 27.425H10.2404C10.1207 27.425 10.0234 27.5223 10.0234 27.642V28.0623C10.0234 28.182 10.1207 28.279 10.2404 28.279H10.8222C10.9422 28.279 11.0392 28.182 11.0392 28.0623V27.642C11.0392 27.5223 10.9422 27.425 10.8222 27.425Z" fill="#6B8795"/>
<path d="M21.5947 25.6567H21.0129C20.8932 25.6567 20.7959 25.7538 20.7959 25.8737V26.2937C20.7959 26.4134 20.8929 26.5107 21.0129 26.5107H21.5947C21.7144 26.5107 21.8117 26.4137 21.8117 26.2937V25.8737C21.8117 25.7538 21.7144 25.6567 21.5947 25.6567Z" fill="#6B8795"/>
<path d="M15.6748 24.0546H16.2566C16.3765 24.0546 16.4736 23.9576 16.4736 23.8377V23.4177C16.4736 23.298 16.3765 23.2007 16.2566 23.2007H15.6748C15.5551 23.2007 15.458 23.2977 15.458 23.4177V23.8377C15.458 23.9576 15.5551 24.0546 15.6748 24.0546Z" fill="#6B8795"/>
<path d="M15.6748 25.5488H16.2566C16.3765 25.5488 16.4736 25.4515 16.4736 25.3318V24.9118C16.4736 24.7919 16.3765 24.6948 16.2566 24.6948H15.6748C15.5551 24.6948 15.458 24.7919 15.458 24.9118V25.3318C15.458 25.4515 15.5551 25.5488 15.6748 25.5488Z" fill="#6B8795"/>
<path d="M15.6748 27.0427H16.2566C16.3765 27.0427 16.4736 26.9456 16.4736 26.8257V26.4057C16.4736 26.286 16.3765 26.1887 16.2566 26.1887H15.6748C15.5551 26.1887 15.458 26.286 15.458 26.4057V26.8257C15.458 26.9456 15.5551 27.0427 15.6748 27.0427Z" fill="#6B8795"/>
<path d="M15.6748 28.5368H16.2566C16.3765 28.5368 16.4736 28.4395 16.4736 28.3198V27.8998C16.4736 27.7799 16.3765 27.6829 16.2566 27.6829H15.6748C15.5551 27.6829 15.458 27.7799 15.458 27.8998V28.3198C15.458 28.4395 15.5551 28.5368 15.6748 28.5368Z" fill="#6B8795"/>
<path d="M23.4267 25.6567H22.8449C22.725 25.6567 22.6279 25.7538 22.6279 25.8737V26.2937C22.6279 26.4134 22.725 26.5107 22.8449 26.5107H23.4267C23.5464 26.5107 23.6435 26.4137 23.6435 26.2937V25.8737C23.6435 25.7538 23.5464 25.6567 23.4267 25.6567Z" fill="#6B8795"/>
<path d="M21.5947 27.425H21.0129C20.8932 27.425 20.7959 27.5223 20.7959 27.642V28.0623C20.7959 28.182 20.8929 28.279 21.0129 28.279H21.5947C21.7144 28.279 21.8117 28.182 21.8117 28.0623V27.642C21.8117 27.5223 21.7144 27.425 21.5947 27.425Z" fill="#6B8795"/>
<path d="M23.4267 27.425H22.8449C22.725 27.425 22.6279 27.5223 22.6279 27.642V28.0623C22.6279 28.182 22.725 28.279 22.8449 28.279H23.4267C23.5464 28.279 23.6435 28.182 23.6435 28.0623V27.642C23.6435 27.5223 23.5464 27.425 23.4267 27.425Z" fill="#6B8795"/>
<path d="M12.8286 14.8921C12.5857 14.8921 12.3887 15.0889 12.3887 15.3318V19.4008C12.3887 19.6437 12.5857 19.8405 12.8286 19.8405C13.0714 19.8405 13.2683 19.6437 13.2683 19.4008V15.3318C13.2683 15.0889 13.0714 14.8921 12.8286 14.8921Z" fill="#6B8795"/>
<path d="M11.2512 14.8921C11.0084 14.8921 10.8115 15.0889 10.8115 15.3318V17.3766C10.8115 17.6194 11.0084 17.8163 11.2512 17.8163C11.494 17.8163 11.6911 17.6194 11.6911 17.3766V15.3318C11.6911 15.0889 11.494 14.8921 11.2512 14.8921Z" fill="#6B8795"/>
<path d="M20.6028 20.8114C20.8456 20.8114 21.0424 20.6146 21.0424 20.3717V17.2287C21.0424 16.9859 20.8456 16.7891 20.6028 16.7891C20.3599 16.7891 20.1631 16.9859 20.1631 17.2287V20.3717C20.1631 20.6146 20.3599 20.8114 20.6028 20.8114Z" fill="#6B8795"/>
<path d="M19.0246 23.7292C19.2675 23.7292 19.4646 23.5324 19.4646 23.2895V17.2287C19.4646 16.9859 19.2675 16.7891 19.0246 16.7891C18.7818 16.7891 18.585 16.9859 18.585 17.2287V23.2895C18.585 23.5324 18.7818 23.7292 19.0246 23.7292Z" fill="#6B8795"/>
<path d="M26.0957 29.1204H25.0367V24.8625C25.0367 24.3182 24.5938 23.8756 24.0495 23.8756H23.8488V22.3656C23.8488 21.963 23.5213 21.6353 23.1184 21.6353H22.513V16.2209C22.513 15.731 22.1148 15.3328 21.6252 15.3328H20.2828V14.1412H25.1342C25.5409 14.1412 25.8716 13.8105 25.8716 13.4038V13.1795C25.8716 12.4196 25.2534 11.8014 24.4935 11.8014H23.914C23.8733 10.589 22.8742 9.6151 21.6522 9.6151C21.1404 9.6151 20.6648 9.78653 20.2828 10.077V9.7506C20.2828 9.43748 20.0633 9.17496 19.7699 9.10789V7.6664C19.7699 7.21756 19.4048 6.85249 18.9562 6.85249H18.6976V5.79597C18.6976 5.34874 18.3334 4.98482 17.8862 4.98482H16.406V0.439682C16.406 0.196838 16.2092 0 15.9663 0C15.7233 0 15.5264 0.196838 15.5264 0.439682V4.98482H13.9876C13.5402 4.98482 13.1763 5.34874 13.1763 5.79597V6.85249H12.9176C12.4688 6.85249 12.1037 7.21756 12.1037 7.6664V9.10789C11.8105 9.17496 11.591 9.43748 11.591 9.75082V13.3237H10.2486C9.75905 13.3237 9.36056 13.7219 9.36056 14.2115V18.1041H8.52332C8.28047 18.1041 8.08363 18.3009 8.08363 18.544V20.3444H7.66478C7.17085 20.3444 6.76894 20.7461 6.76894 21.2402V29.1204H5.70944C5.46637 29.1204 5.26953 29.3175 5.26953 29.5603C5.26953 29.8032 5.46637 30 5.70944 30H26.0957C26.3386 30 26.5354 29.8032 26.5354 29.5603C26.5354 29.3175 26.3386 29.1204 26.0957 29.1204ZM22.9694 23.8756H21.8809V22.5149H22.9694V23.8756ZM21.6522 10.4947C22.4151 10.4947 23.0358 11.1154 23.0358 11.8783C23.0358 11.971 23.0264 12.0637 23.0081 12.1541C22.982 12.2834 23.0154 12.4175 23.099 12.5196C23.1823 12.6217 23.3072 12.681 23.4393 12.681H24.4935C24.7687 12.681 24.9923 12.9046 24.9923 13.1797V13.2619H20.2828V11.686C20.3771 11.0051 20.9608 10.4947 21.6522 10.4947ZM14.0558 5.86441H17.818V6.85249H14.0558V5.86441ZM12.9833 7.73209H18.8905V9.09073H12.9833V7.73209ZM8.963 18.9837H10.0516V20.3444H8.963V18.9837ZM13.6885 29.1204H12.4706V25.8804C12.4706 25.6375 12.2735 25.4407 12.0307 25.4407C11.7879 25.4407 11.591 25.6375 11.591 25.8804V29.1204H7.64853V21.24C7.64853 21.2311 7.65585 21.2238 7.66478 21.2238H11.5748C11.5837 21.2238 11.591 21.2311 11.591 21.24V24.1214C11.591 24.3642 11.7879 24.5611 12.0307 24.5611C12.2738 24.5611 12.4706 24.3642 12.4706 24.1214V21.24C12.4706 20.7461 12.0687 20.3442 11.5748 20.3442H10.9309V18.544C10.9309 18.3009 10.7341 18.1041 10.4912 18.1041H10.2402V14.2115C10.2402 14.2069 10.244 14.203 10.2486 14.203H13.8128C13.8176 14.203 13.8212 14.2069 13.8212 14.2115V29.1204H13.6885ZM17.173 22.6382V29.1204H14.7008V22.6382H17.173ZM18.0524 29.1204V20.2803C18.0524 20.0375 17.8555 19.8406 17.6127 19.8406C17.3698 19.8406 17.173 20.0375 17.173 20.2803V21.7589H16.425V14.7031C16.425 14.4603 16.2279 14.2635 15.9851 14.2635C15.7422 14.2635 15.5454 14.4603 15.5454 14.7031V21.7589H14.7008V14.2115C14.7008 13.7219 14.3024 13.3237 13.8128 13.3237H12.4704V9.97032H19.4032V11.6348C19.4021 11.6535 19.4018 11.6723 19.4032 11.6908V15.3328H18.0608C17.5712 15.3328 17.173 15.731 17.173 16.2209V18.5213C17.173 18.7642 17.3698 18.961 17.6127 18.961C17.8555 18.961 18.0524 18.7642 18.0524 18.5213V16.2209C18.0524 16.216 18.0562 16.2124 18.0608 16.2124H21.625C21.6298 16.2124 21.6334 16.216 21.6334 16.2209V21.6428C21.2773 21.6911 21.0013 21.9965 21.0013 22.3659V23.8756H20.3904C19.8461 23.8756 19.4032 24.3185 19.4032 24.8627V29.1206H18.0524V29.1204ZM20.2828 29.1204V24.8625C20.2828 24.8032 20.3311 24.7549 20.3904 24.7549H24.0495C24.1088 24.7549 24.1571 24.8032 24.1571 24.8625V29.1204H20.2828Z" fill="#6B8795"/>
<path d="M11.5718 6.82698C11.5718 6.24081 11.0948 5.76382 10.5084 5.76382H10.1232C9.90829 5.15111 9.32304 4.71394 8.64647 4.71257C8.28873 3.95474 7.51762 3.45166 6.65726 3.45166C5.44441 3.45166 4.4577 4.43814 4.4577 5.65099C4.4577 5.68921 4.45885 5.72743 4.46068 5.76543C3.90198 5.79633 3.45703 6.26073 3.45703 6.82698C3.45703 7.41338 3.93402 7.89037 4.52042 7.89037H10.5084C11.0948 7.89037 11.5718 7.41338 11.5718 6.82698ZM4.33662 6.82698C4.33662 6.72559 4.41902 6.64319 4.52042 6.64319H4.98665C5.12764 6.64319 5.26039 6.57544 5.34302 6.461C5.42564 6.34656 5.4483 6.19962 5.40413 6.06549C5.35973 5.93137 5.3373 5.79198 5.3373 5.65099C5.3373 4.92314 5.92941 4.33102 6.65726 4.33102C7.25212 4.33102 7.77603 4.7318 7.93121 5.30537C7.99416 5.53883 8.2338 5.67754 8.46748 5.61597C8.52882 5.59995 8.58627 5.59193 8.64349 5.59193C9.00375 5.59193 9.30542 5.87392 9.32991 6.23349C9.34593 6.4642 9.53751 6.64319 9.76868 6.64319H10.5084C10.6098 6.64319 10.6922 6.72559 10.6922 6.82698C10.6922 6.92838 10.6098 7.01077 10.5084 7.01077H4.52042C4.41902 7.01077 4.33662 6.92838 4.33662 6.82698Z" fill="#6B8795"/>
</g>
<defs>
<clipPath id="clip0_2962_51516">
<rect width="30" height="30" fill="#fff"/>
</clipPath>
</defs>
</svg>
