<svg width="30" height="30" viewBox="0 0 30 30" fill="none" xmlns="http://www.w3.org/2000/svg">
<path d="M11.0741 2.61061C11.1937 2.61061 11.3128 2.56209 11.3995 2.46665C13.2603 0.355923 16.7401 0.356157 18.6006 2.4667C18.7639 2.64635 19.0418 2.6596 19.2214 2.49635C19.401 2.33311 19.4143 2.0552 19.2511 1.87561C17.0546 -0.616265 12.9451 -0.615913 10.749 1.87561C10.5858 2.0552 10.5991 2.33317 10.7787 2.49635C10.8629 2.57293 10.9687 2.61061 11.0741 2.61061Z" fill="white"/>
<path d="M17.1552 3.78061C17.2418 3.876 17.361 3.92452 17.4805 3.92452C17.8528 3.93085 18.0637 3.46514 17.8056 3.18952C16.3562 1.54549 13.6446 1.54561 12.1953 3.18952C12.0321 3.36911 12.0453 3.64708 12.2249 3.81026C12.4046 3.97356 12.6825 3.96026 12.8457 3.78067C13.9596 2.51745 16.0415 2.51762 17.1552 3.78061Z" fill="white"/>
<path d="M15.0006 3.85645C14.4711 3.85645 13.9635 4.08127 13.608 4.47326C13.445 4.65309 13.4586 4.931 13.6384 5.09401C13.8177 5.25666 14.0957 5.24383 14.2591 5.06365C14.6352 4.63006 15.3658 4.63006 15.7419 5.06359C15.9049 5.24348 16.1829 5.25707 16.3626 5.09406C16.5425 4.93106 16.5561 4.65315 16.3931 4.47332C16.0377 4.08133 15.5301 3.85645 15.0006 3.85645Z" fill="white"/>
<path d="M1.23355 8.59313C3.09408 6.48235 6.57431 6.48264 8.43461 8.59313C8.5982 8.77313 8.87629 8.78573 9.05535 8.62284C9.235 8.45965 9.2483 8.18168 9.08506 8.0021C6.88867 5.51022 2.77908 5.51052 0.582986 8.0021C0.419744 8.18168 0.433044 8.45965 0.612693 8.62284C0.7924 8.78608 1.07031 8.77272 1.23355 8.59313Z" fill="white"/>
<path d="M6.9883 9.90716C7.15189 10.0872 7.42998 10.0997 7.60904 9.93675C7.78863 9.7735 7.80193 9.49559 7.63863 9.316C6.18896 7.67192 3.47782 7.6721 2.02833 9.316C1.86509 9.49559 1.87833 9.77356 2.05792 9.93675C2.23757 10.1 2.51554 10.0867 2.67866 9.90716C3.79265 8.64399 5.87449 8.64417 6.9883 9.90716Z" fill="white"/>
<path d="M4.83356 9.9834C4.30405 9.9834 3.79651 10.2082 3.44108 10.6002C3.27802 10.78 3.29161 11.0579 3.47144 11.221C3.6512 11.384 3.92917 11.3704 4.09218 11.1906C4.46841 10.757 5.19884 10.7571 5.57507 11.1906C5.73849 11.3708 6.01651 11.3836 6.19581 11.221C6.37558 11.0579 6.38917 10.78 6.22616 10.6002C5.87062 10.2082 5.36308 9.9834 4.83356 9.9834Z" fill="white"/>
<path d="M21.5655 5.89243C23.426 3.7817 26.9063 3.78194 28.7665 5.89243C28.9302 6.07249 29.2082 6.08497 29.3873 5.92213C29.5669 5.75889 29.5802 5.48098 29.4171 5.30139C27.2206 2.80952 23.1112 2.80987 20.915 5.30139C20.7518 5.48098 20.7651 5.75895 20.9447 5.92213C21.1243 6.08538 21.4023 6.07208 21.5655 5.89243Z" fill="white"/>
<path d="M27.3212 7.20646C27.7265 7.6233 28.3482 7.05945 27.9716 6.61531C26.5221 4.97129 23.8106 4.97135 22.3613 6.61537C22.1981 6.79496 22.2113 7.07287 22.391 7.23611C22.5705 7.39929 22.8485 7.38611 23.0117 7.20646C24.1255 5.94336 26.2075 5.94348 27.3212 7.20646Z" fill="white"/>
<path d="M25.1656 7.28271C24.636 7.28271 24.1285 7.50754 23.7731 7.89959C23.6101 8.07941 23.6236 8.35732 23.8035 8.52033C23.9833 8.68334 24.2612 8.66975 24.4243 8.48986C24.8003 8.05633 25.5309 8.05633 25.907 8.48986C26.0704 8.6701 26.3484 8.68293 26.5277 8.52033C26.7075 8.35732 26.7212 8.07941 26.5582 7.89959C26.2027 7.50754 25.6952 7.28271 25.1656 7.28271Z" fill="white"/>
<path d="M19.3945 14.8176H19.1309V12.4445C19.1309 12.2018 18.9342 12.0051 18.6914 12.0051H18.252V9.51486C18.252 9.27216 18.0553 9.0754 17.8125 9.0754H15.4395V6.76095C15.4193 6.17906 14.5805 6.17953 14.5605 6.76095V9.0754H12.1875C11.9448 9.0754 11.748 9.27216 11.748 9.51486V12.0051H11.3086C11.0659 12.0051 10.8691 12.2018 10.8691 12.4445V14.8176H10.6055C10.3628 14.8176 10.166 15.0143 10.166 15.257V29.5539C10.166 29.7966 10.3628 29.9934 10.6055 29.9934H19.3945C19.6373 29.9934 19.834 29.7966 19.834 29.5539V15.257C19.834 15.0143 19.6373 14.8176 19.3945 14.8176ZM12.627 9.95431H17.373V12.0051H12.627V9.95431ZM12.8027 29.1145V27.7668H17.1973V29.1145H12.8027ZM18.9551 29.1145H18.0762V27.4445C18.0762 27.1376 17.8264 26.8879 17.5195 26.8879H12.4805C12.1736 26.8879 11.9238 27.1376 11.9238 27.4445V29.1145H11.0449V15.6965H15C15.5819 15.6763 15.5814 14.8375 15 14.8176H11.748V12.884H18.252V14.8176H17.058C16.4761 14.8377 16.4766 15.6766 17.058 15.6965H18.9551V29.1145Z" fill="white"/>
<path d="M14.0039 16.5752H12.4805C12.1736 16.5752 11.9238 16.8249 11.9238 17.1318V18.6553C11.9238 18.9622 12.1736 19.2119 12.4805 19.2119H14.0039C14.3108 19.2119 14.5605 18.9622 14.5605 18.6553V17.1318C14.5605 16.8249 14.3108 16.5752 14.0039 16.5752ZM13.6816 18.333H12.8027V17.4541H13.6816V18.333Z" fill="white"/>
<path d="M15.4395 17.1318V18.6553C15.4395 18.9622 15.6892 19.2119 15.9961 19.2119H17.5195C17.8264 19.2119 18.0762 18.9622 18.0762 18.6553V17.1318C18.0762 16.8249 17.8264 16.5752 17.5195 16.5752H15.9961C15.6892 16.5752 15.4395 16.8249 15.4395 17.1318ZM16.3184 17.4541H17.1973V18.333H16.3184V17.4541Z" fill="white"/>
<path d="M14.0039 20.0908H12.4805C12.1736 20.0908 11.9238 20.3405 11.9238 20.6475V22.1709C11.9238 22.4778 12.1736 22.7275 12.4805 22.7275H14.0039C14.3108 22.7275 14.5605 22.4778 14.5605 22.1709V20.6475C14.5605 20.3405 14.3108 20.0908 14.0039 20.0908ZM13.6816 21.8486H12.8027V20.9697H13.6816V21.8486Z" fill="white"/>
<path d="M17.5195 20.0908H15.9961C15.6892 20.0908 15.4395 20.3405 15.4395 20.6475V22.1709C15.4395 22.4778 15.6892 22.7275 15.9961 22.7275H17.5195C17.8264 22.7275 18.0762 22.4778 18.0762 22.1709V20.6475C18.0762 20.3405 17.8264 20.0908 17.5195 20.0908ZM17.1973 21.8486H16.3184V20.9697H17.1973V21.8486Z" fill="white"/>
<path d="M14.0039 23.6064H12.4805C12.1736 23.6064 11.9238 23.8562 11.9238 24.1631V25.6865C11.9238 25.9934 12.1736 26.2432 12.4805 26.2432H14.0039C14.3108 26.2432 14.5605 25.9934 14.5605 25.6865V24.1631C14.5605 23.8562 14.3108 23.6064 14.0039 23.6064ZM13.6816 25.3643H12.8027V24.4854H13.6816V25.3643Z" fill="white"/>
<path d="M17.5195 23.6064H15.9961C15.6892 23.6064 15.4395 23.8562 15.4395 24.1631V25.6865C15.4395 25.9934 15.6892 26.2432 15.9961 26.2432H17.5195C17.8264 26.2432 18.0762 25.9934 18.0762 25.6865V24.1631C18.0762 23.8562 17.8264 23.6064 17.5195 23.6064ZM17.1973 25.3643H16.3184V24.4854H17.1973V25.3643Z" fill="white"/>
<path d="M9.22852 14.8176H5.27344V12.5031C5.25328 11.9212 4.41451 11.9217 4.39453 12.5031V14.8176H0.439453C0.196758 14.8176 0 15.0144 0 15.257V18.7727C0.0201563 19.3546 0.858926 19.3541 0.878906 18.7727V15.6965H8.78906V29.1145H7.91016V27.4445C7.91016 27.1376 7.66043 26.8879 7.35352 26.8879H2.31445C2.00754 26.8879 1.75781 27.1376 1.75781 27.4445V29.1145H0.878906V20.7428C0.85875 20.1609 0.0199805 20.1613 0 20.7428V29.5539C0 29.7966 0.196758 29.9933 0.439453 29.9933H9.22852C9.47121 29.9933 9.66797 29.7966 9.66797 29.5539V15.257C9.66797 15.0144 9.47121 14.8176 9.22852 14.8176ZM2.63672 29.1145V27.7668H7.03125V29.1145H2.63672Z" fill="white"/>
<path d="M2.31445 19.2119H3.83789C4.1448 19.2119 4.39453 18.9622 4.39453 18.6553V17.1318C4.39453 16.8249 4.1448 16.5752 3.83789 16.5752H2.31445C2.00754 16.5752 1.75781 16.8249 1.75781 17.1318V18.6553C1.75781 18.9622 2.00754 19.2119 2.31445 19.2119ZM2.63672 17.4541H3.51562V18.333H2.63672V17.4541Z" fill="white"/>
<path d="M5.83008 19.2119H7.35352C7.66043 19.2119 7.91016 18.9622 7.91016 18.6553V17.1318C7.91016 16.8249 7.66043 16.5752 7.35352 16.5752H5.83008C5.52316 16.5752 5.27344 16.8249 5.27344 17.1318V18.6553C5.27344 18.9622 5.52316 19.2119 5.83008 19.2119ZM6.15234 17.4541H7.03125V18.333H6.15234V17.4541Z" fill="white"/>
<path d="M1.75781 22.1709C1.75781 22.4778 2.00754 22.7275 2.31445 22.7275H3.83789C4.1448 22.7275 4.39453 22.4778 4.39453 22.1709V20.6475C4.39453 20.3405 4.1448 20.0908 3.83789 20.0908H2.31445C2.00754 20.0908 1.75781 20.3405 1.75781 20.6475V22.1709ZM2.63672 20.9697H3.51562V21.8486H2.63672V20.9697Z" fill="white"/>
<path d="M5.27344 22.1709C5.27344 22.4778 5.52316 22.7275 5.83008 22.7275H7.35352C7.66043 22.7275 7.91016 22.4778 7.91016 22.1709V20.6475C7.91016 20.3405 7.66043 20.0908 7.35352 20.0908H5.83008C5.52316 20.0908 5.27344 20.3405 5.27344 20.6475V22.1709ZM6.15234 20.9697H7.03125V21.8486H6.15234V20.9697Z" fill="white"/>
<path d="M1.75781 25.6865C1.75781 25.9934 2.00754 26.2432 2.31445 26.2432H3.83789C4.1448 26.2432 4.39453 25.9934 4.39453 25.6865V24.1631C4.39453 23.8562 4.1448 23.6064 3.83789 23.6064H2.31445C2.00754 23.6064 1.75781 23.8562 1.75781 24.1631V25.6865ZM2.63672 24.4854H3.51562V25.3643H2.63672V24.4854Z" fill="white"/>
<path d="M5.27344 25.6865C5.27344 25.9934 5.52316 26.2432 5.83008 26.2432H7.35352C7.66043 26.2432 7.91016 25.9934 7.91016 25.6865V24.1631C7.91016 23.8562 7.66043 23.6064 7.35352 23.6064H5.83008C5.52316 23.6064 5.27344 23.8562 5.27344 24.1631V25.6865ZM6.15234 24.4854H7.03125V25.3643H6.15234V24.4854Z" fill="white"/>
<path d="M29.5605 26.4311C29.8033 26.4311 30 26.2343 30 25.9917V15.257C30 15.0144 29.8033 14.8176 29.5605 14.8176H29.1211V12.3274C29.1211 12.0847 28.9244 11.8879 28.6816 11.8879H25.6055V9.60275C25.5853 9.02085 24.7465 9.02132 24.7266 9.60275V11.8879H24.6582C23.5328 11.8879 22.6172 12.8035 22.6172 13.929V14.8176H20.7715C20.5287 14.8176 20.332 15.0144 20.332 15.257V29.5539C20.332 29.7966 20.5287 29.9934 20.7715 29.9934H29.5605C29.8033 29.9934 30 29.7966 30 29.5539V28.0847C29.9798 27.5028 29.141 27.5033 29.1211 28.0847V29.1145H28.2422V27.4445C28.2422 27.1376 27.9925 26.8879 27.6855 26.8879H22.6465C22.3396 26.8879 22.0898 27.1376 22.0898 27.4445V29.1145H21.2109V15.6965H29.1211V25.9917C29.1211 26.2344 29.3178 26.4311 29.5605 26.4311ZM22.9688 27.7668H27.3633V29.1145H22.9688V27.7668ZM23.4961 14.8176V13.929C23.4961 13.2881 24.0174 12.7668 24.6582 12.7668H28.2422V14.8176H23.4961Z" fill="white"/>
<path d="M24.7266 17.1318C24.7266 16.8249 24.4768 16.5752 24.1699 16.5752H22.6465C22.3396 16.5752 22.0898 16.8249 22.0898 17.1318V18.6553C22.0898 18.9622 22.3396 19.2119 22.6465 19.2119H24.1699C24.4768 19.2119 24.7266 18.9622 24.7266 18.6553V17.1318ZM23.8477 18.333H22.9688V17.4541H23.8477V18.333Z" fill="white"/>
<path d="M28.2422 17.1318C28.2422 16.8249 27.9925 16.5752 27.6855 16.5752H26.1621C25.8552 16.5752 25.6055 16.8249 25.6055 17.1318V18.6553C25.6055 18.9622 25.8552 19.2119 26.1621 19.2119H27.6855C27.9925 19.2119 28.2422 18.9622 28.2422 18.6553V17.1318ZM27.3633 18.333H26.4844V17.4541H27.3633V18.333Z" fill="white"/>
<path d="M24.7266 20.6475C24.7266 20.3405 24.4768 20.0908 24.1699 20.0908H22.6465C22.3396 20.0908 22.0898 20.3405 22.0898 20.6475V22.1709C22.0898 22.4778 22.3396 22.7275 22.6465 22.7275H24.1699C24.4768 22.7275 24.7266 22.4778 24.7266 22.1709V20.6475ZM23.8477 21.8486H22.9688V20.9697H23.8477V21.8486Z" fill="white"/>
<path d="M28.2422 20.6475C28.2422 20.3405 27.9925 20.0908 27.6855 20.0908H26.1621C25.8552 20.0908 25.6055 20.3405 25.6055 20.6475V22.1709C25.6055 22.4778 25.8552 22.7275 26.1621 22.7275H27.6855C27.9925 22.7275 28.2422 22.4778 28.2422 22.1709V20.6475ZM27.3633 21.8486H26.4844V20.9697H27.3633V21.8486Z" fill="white"/>
<path d="M24.1699 23.6064H22.6465C22.3396 23.6064 22.0898 23.8562 22.0898 24.1631V25.6865C22.0898 25.9934 22.3396 26.2432 22.6465 26.2432H24.1699C24.4768 26.2432 24.7266 25.9934 24.7266 25.6865V24.1631C24.7266 23.8562 24.4768 23.6064 24.1699 23.6064ZM23.8477 25.3643H22.9688V24.4854H23.8477V25.3643Z" fill="white"/>
<path d="M27.6855 23.6064H26.1621C25.8552 23.6064 25.6055 23.8562 25.6055 24.1631V25.6865C25.6055 25.9934 25.8552 26.2432 26.1621 26.2432H27.6855C27.9925 26.2432 28.2422 25.9934 28.2422 25.6865V24.1631C28.2422 23.8562 27.9925 23.6064 27.6855 23.6064ZM27.3633 25.3643H26.4844V24.4854H27.3633V25.3643Z" fill="white"/>
</svg>
