<svg width="30" height="30" viewBox="0 0 30 30" fill="none" xmlns="http://www.w3.org/2000/svg">
<path d="M18.5598 16.0468C18.0457 15.5328 17.2094 15.5328 16.6953 16.0468C16.5839 16.1582 16.4346 16.2196 16.2749 16.2196C16.1153 16.2196 15.966 16.1582 15.8546 16.0468L13.9535 14.1458C13.8421 14.0343 13.7807 13.885 13.7807 13.7254C13.7807 13.5657 13.842 13.4164 13.9535 13.3049C14.4675 12.7909 14.4675 11.9545 13.9535 11.4405L12.8385 10.3255C12.3245 9.81141 11.4881 9.81147 10.974 10.3255C9.59329 11.7063 9.59329 13.9531 10.974 15.3339L11.8881 16.2479L12.5096 15.6264L11.5956 14.7124C10.5574 13.6743 10.5574 11.9851 11.5955 10.947C11.7669 10.7756 12.0458 10.7757 12.2169 10.947L13.332 12.0621C13.5033 12.2334 13.5033 12.5122 13.332 12.6835C13.0545 12.961 12.9017 13.331 12.9017 13.7255C12.9017 14.1199 13.0545 14.4898 13.332 14.7673L15.233 16.6683C15.5104 16.9457 15.8805 17.0985 16.2748 17.0986H16.2749C16.6693 17.0986 17.0393 16.9458 17.3168 16.6683C17.3989 16.5861 17.5093 16.5409 17.6275 16.5409C17.7457 16.5409 17.856 16.5861 17.9382 16.6683L19.0532 17.7834C19.2246 17.9547 19.2246 18.2336 19.0532 18.4049C18.0151 19.443 16.3259 19.4429 15.2878 18.4049L14.3739 17.4909L13.7524 18.1124L14.6663 19.0263C15.3569 19.7169 16.2636 20.062 17.1706 20.062C18.0774 20.062 18.9844 19.7167 19.6748 19.0264C20.1887 18.5124 20.1887 17.676 19.6748 17.1619L18.5598 16.0468Z" fill="white"/>
<path d="M12.5068 16.8677L13.1282 16.2463L13.7496 16.8677L13.1282 17.4891L12.5068 16.8677Z" fill="white"/>
<path d="M27.8027 12.8027C26.7416 12.8027 25.8538 13.5588 25.6497 14.5605H23.3381C23.2354 12.5889 22.4452 10.7962 21.2037 9.41783L23.4314 7.1901L22.8099 6.56865L20.5822 8.79639C19.2038 7.55484 17.4111 6.76477 15.4395 6.66205V4.35029C16.4412 4.14615 17.1973 3.2584 17.1973 2.19727C17.1973 0.985664 16.2116 0 15 0C13.7884 0 12.8027 0.985664 12.8027 2.19727C12.8027 3.2584 13.5588 4.14615 14.5605 4.35029V6.66193C12.5889 6.76465 10.7963 7.55473 9.41783 8.79627L7.1901 6.56853L6.56859 7.18998L8.79633 9.41771C7.55478 10.7961 6.76471 12.5887 6.66193 14.5604H4.35029C4.14615 13.5587 3.2584 12.8026 2.19727 12.8026C0.985664 12.8027 0 13.7884 0 15C0 16.2116 0.985664 17.1973 2.19727 17.1973C3.2584 17.1973 4.14615 16.4412 4.35029 15.4395H6.66193C6.76465 17.4111 7.55478 19.2037 8.79633 20.5822L6.56859 22.8099L7.1901 23.4313L9.41783 21.2036C10.7963 22.4452 12.5889 23.2352 14.5605 23.3379V25.6496C13.5588 25.8537 12.8027 26.7415 12.8027 27.8026C12.8027 29.0142 13.7884 29.9999 15 29.9999C16.2116 29.9999 17.1973 29.0142 17.1973 27.8026C17.1973 26.7415 16.4412 25.8537 15.4395 25.6496V23.3379C17.4111 23.2352 19.2038 22.4452 20.5822 21.2036L22.8099 23.4313L23.4314 22.8099L21.2037 20.5822C22.4452 19.2037 23.2353 17.4111 23.3381 15.4395H25.6497C25.8538 16.4412 26.7416 17.1973 27.8027 17.1973C29.0143 17.1973 30 16.2116 30 15C30 13.7884 29.0143 12.8027 27.8027 12.8027ZM2.19727 16.3184C1.47035 16.3184 0.878906 15.727 0.878906 15C0.878906 14.273 1.47035 13.6816 2.19727 13.6816C2.92418 13.6816 3.51562 14.273 3.51562 15C3.51562 15.727 2.92418 16.3184 2.19727 16.3184ZM13.6816 2.19727C13.6816 1.47029 14.2731 0.878906 15 0.878906C15.7269 0.878906 16.3184 1.47029 16.3184 2.19727C16.3184 2.92424 15.7269 3.51562 15 3.51562C14.2731 3.51562 13.6816 2.92424 13.6816 2.19727ZM16.3184 27.8027C16.3184 28.5297 15.7269 29.1211 15 29.1211C14.2731 29.1211 13.6816 28.5297 13.6816 27.8027C13.6816 27.0758 14.2731 26.4844 15 26.4844C15.7269 26.4844 16.3184 27.0758 16.3184 27.8027ZM15 22.4707C10.8806 22.4707 7.5293 19.1194 7.5293 15C7.5293 10.8806 10.8806 7.5293 15 7.5293C19.1194 7.5293 22.4707 10.8807 22.4707 15C22.4707 19.1193 19.1194 22.4707 15 22.4707ZM27.8027 16.3184C27.0758 16.3184 26.4844 15.727 26.4844 15C26.4844 14.273 27.0758 13.6816 27.8027 13.6816C28.5296 13.6816 29.1211 14.273 29.1211 15C29.1211 15.727 28.5296 16.3184 27.8027 16.3184Z" fill="white"/>
<path d="M25.2959 23.0986C24.7089 23.0986 24.1572 23.3272 23.7422 23.7422C23.3272 24.1572 23.0986 24.709 23.0986 25.296C23.0986 25.8829 23.3272 26.4347 23.7422 26.8496C24.1572 27.2646 24.7089 27.4932 25.2959 27.4932C25.8828 27.4932 26.4346 27.2646 26.8496 26.8497C27.2646 26.4347 27.4932 25.8829 27.4932 25.296C27.4932 24.709 27.2646 24.1572 26.8496 23.7422C26.4346 23.3272 25.8828 23.0986 25.2959 23.0986ZM26.2281 26.2281C25.9791 26.4771 25.648 26.6143 25.2959 26.6143C24.9438 26.6143 24.6127 26.4771 24.3637 26.2281C24.1147 25.9791 23.9775 25.648 23.9775 25.2959C23.9775 24.9438 24.1147 24.6127 24.3637 24.3637C24.6127 24.1146 24.9438 23.9775 25.2959 23.9775C25.648 23.9775 25.9791 24.1146 26.2281 24.3637C26.4771 24.6127 26.6143 24.9438 26.6143 25.2959C26.6143 25.6481 26.4771 25.9792 26.2281 26.2281Z" fill="white"/>
<path d="M4.7041 6.90137C5.29109 6.90137 5.84287 6.67279 6.25783 6.25777C6.67279 5.84275 6.90137 5.29098 6.90137 4.7041C6.90137 4.11723 6.67279 3.56539 6.25783 3.15043C5.84281 2.73541 5.29109 2.50684 4.7041 2.50684C4.11717 2.50684 3.56539 2.73541 3.15043 3.15037C2.73541 3.56539 2.50684 4.11717 2.50684 4.7041C2.50684 5.29103 2.73541 5.84281 3.15037 6.25777C3.56545 6.67279 4.11723 6.90137 4.7041 6.90137ZM3.77188 3.77193C4.0209 3.52291 4.35195 3.3858 4.7041 3.3858C5.05625 3.3858 5.3873 3.52291 5.63627 3.77193C5.88529 4.02096 6.02246 4.35201 6.02246 4.70416C6.02246 5.05631 5.88529 5.38736 5.63627 5.63639C5.3873 5.88541 5.05625 6.02252 4.7041 6.02252C4.35195 6.02252 4.0209 5.88541 3.77188 5.63633C3.52291 5.38736 3.38574 5.05631 3.38574 4.70416C3.38574 4.35201 3.52291 4.0209 3.77188 3.77193Z" fill="white"/>
<path d="M25.2959 6.90142C25.8828 6.90142 26.4346 6.67285 26.8496 6.25783C27.2646 5.84281 27.4932 5.29103 27.4932 4.70416C27.4932 4.11728 27.2646 3.56545 26.8496 3.15043H26.8496C26.4346 2.73541 25.8828 2.50684 25.2959 2.50684C24.7089 2.50684 24.1572 2.73541 23.7422 3.15037C23.3272 3.56539 23.0986 4.11717 23.0986 4.7041C23.0986 5.29103 23.3272 5.84281 23.7422 6.25777C24.1571 6.67285 24.7089 6.90142 25.2959 6.90142ZM24.3637 3.77199C24.6127 3.52297 24.9438 3.38586 25.2959 3.38586C25.648 3.38586 25.9791 3.52297 26.2281 3.77199H26.2281C26.4771 4.02102 26.6143 4.35207 26.6143 4.70422C26.6143 5.05637 26.4771 5.38742 26.2281 5.63645C25.9791 5.88547 25.648 6.02258 25.2959 6.02258C24.9438 6.02258 24.6127 5.88547 24.3637 5.63639C24.1147 5.38742 23.9775 5.05637 23.9775 4.70422C23.9775 4.35207 24.1147 4.02096 24.3637 3.77199Z" fill="white"/>
<path d="M4.7041 23.0986C4.11717 23.0986 3.56539 23.3272 3.15037 23.7422C2.73541 24.1572 2.50684 24.709 2.50684 25.296C2.50684 25.8829 2.73541 26.4347 3.15037 26.8496C3.56539 27.2646 4.11717 27.4932 4.7041 27.4932C5.29109 27.4932 5.84281 27.2646 6.25783 26.8497C6.67279 26.4347 6.90137 25.8829 6.90137 25.296C6.90137 24.709 6.67279 24.1572 6.25783 23.7422C5.84281 23.3272 5.29109 23.0986 4.7041 23.0986ZM5.63627 26.2281C5.3873 26.4771 5.05625 26.6143 4.7041 26.6143C4.35195 26.6143 4.0209 26.4771 3.77188 26.2281C3.52291 25.9791 3.38574 25.648 3.38574 25.2959C3.38574 24.9438 3.52291 24.6127 3.77193 24.3637C4.0209 24.1146 4.35195 23.9775 4.7041 23.9775C5.05625 23.9775 5.3873 24.1146 5.63627 24.3637C5.88529 24.6127 6.02246 24.9438 6.02246 25.2959C6.02246 25.6481 5.88529 25.9792 5.63627 26.2281Z" fill="white"/>
<path d="M16.3184 8.84766H17.1973V9.72656H16.3184V8.84766Z" fill="white"/>
<path d="M18.0762 9.72656H18.9551V10.6055H18.0762V9.72656Z" fill="white"/>
</svg>
