<svg width="30" height="30" viewBox="0 0 30 30" fill="none" xmlns="http://www.w3.org/2000/svg">
<path d="M8.90625 23.4375H7.96875V24.375H8.90625V23.4375Z" fill="white"/>
<path d="M25.7104 1.90359C25.6186 1.62497 25.4419 1.38203 25.2052 1.2088C24.9684 1.03557 24.6834 0.94074 24.3901 0.937582C24.0968 0.934423 23.8098 1.0231 23.5694 1.19119C23.329 1.35927 23.1471 1.59836 23.0494 1.87494H13.5131C13.4154 1.59836 13.2335 1.35927 12.9931 1.19119C12.7527 1.0231 12.4657 0.934423 12.1724 0.937582C11.8791 0.94074 11.5941 1.03557 11.3573 1.2088C11.1206 1.38203 10.9439 1.62497 10.8521 1.90359C10.1824 2.00013 9.56973 2.33459 9.12633 2.84579C8.68293 3.35699 8.43841 4.01074 8.4375 4.68744V8.43744C8.43841 9.11415 8.68293 9.7679 9.12633 10.2791C9.56973 10.7903 10.1824 11.1248 10.8521 11.2213C10.9439 11.4999 11.1206 11.7429 11.3573 11.9161C11.5941 12.0893 11.8791 12.1841 12.1724 12.1873C12.4657 12.1905 12.7527 12.1018 12.9931 11.9337C13.2335 11.7656 13.4154 11.5265 13.5131 11.2499H15.5494C15.4877 11.424 15.461 11.6085 15.4707 11.793C15.4804 11.9774 15.5263 12.1581 15.6059 12.3247C15.6855 12.4914 15.7971 12.6407 15.9345 12.7642C16.0718 12.8876 16.2321 12.9828 16.4062 13.0443V16.627C16.281 16.5078 16.1435 16.4023 15.9961 16.3121C15.4444 15.9705 14.7816 15.8566 14.1476 15.9947C13.5135 16.1327 12.958 16.5117 12.5982 17.0517L11.7457 18.3305C11.6601 18.4595 11.544 18.5653 11.4076 18.6384C11.2712 18.7116 11.1188 18.7499 10.9641 18.7499H10.7812V18.2812C10.7812 18.1569 10.7319 18.0376 10.644 17.9497C10.556 17.8618 10.4368 17.8124 10.3125 17.8124H2.34375V18.7499H9.84375V25.3124H2.34375V26.2499H10.3125C10.4368 26.2499 10.556 26.2006 10.644 26.1126C10.7319 26.0247 10.7812 25.9055 10.7812 25.7812V25.3124H11.6085C12.8806 25.9286 14.2756 26.2491 15.6891 26.2499H16.4062V27.1874C16.4062 27.6847 16.6038 28.1616 16.9554 28.5133C17.3071 28.8649 17.784 29.0624 18.2812 29.0624C18.7785 29.0624 19.2554 28.8649 19.6071 28.5133C19.9587 28.1616 20.1562 27.6847 20.1562 27.1874V26.1693C20.4302 26.0721 20.6674 25.8925 20.8352 25.6552C21.0031 25.4178 21.0934 25.1344 21.0938 24.8437C21.0945 24.6018 21.0321 24.3639 20.9126 24.1535C21.2159 23.9604 21.4336 23.6583 21.5208 23.3094C21.6079 22.9606 21.5579 22.5916 21.3809 22.2785C21.6843 22.0855 21.9021 21.7834 21.9893 21.4345C22.0766 21.0857 22.0266 20.7166 21.8497 20.4035C22.0473 20.2749 22.2101 20.0994 22.3235 19.8927C22.437 19.686 22.4976 19.4545 22.5 19.2187C22.4996 18.8459 22.3513 18.4884 22.0877 18.2248C21.824 17.9612 21.4666 17.8129 21.0938 17.8124H20.1562V13.0443C20.3304 12.9828 20.4907 12.8876 20.628 12.7642C20.7654 12.6407 20.877 12.4914 20.9566 12.3247C21.0362 12.1581 21.0821 11.9774 21.0918 11.793C21.1015 11.6085 21.0748 11.424 21.0131 11.2499H23.0494C23.1471 11.5265 23.329 11.7656 23.5694 11.9337C23.8098 12.1018 24.0968 12.1905 24.3901 12.1873C24.6834 12.1841 24.9684 12.0893 25.2052 11.9161C25.4419 11.7429 25.6186 11.4999 25.7104 11.2213C26.3801 11.1248 26.9928 10.7903 27.4362 10.2791C27.8796 9.7679 28.1241 9.11415 28.125 8.43744V4.68744C28.1241 4.01074 27.8796 3.35699 27.4362 2.84579C26.9928 2.33459 26.3801 2.00013 25.7104 1.90359ZM22.9688 2.81244V10.3124H13.5938V2.81244H22.9688ZM9.375 8.43744V4.68744C9.37552 4.27187 9.51385 3.86821 9.76831 3.53966C10.0228 3.21112 10.379 2.97623 10.7812 2.8718V10.2531C10.379 10.1487 10.0228 9.91377 9.76831 9.58522C9.51385 9.25667 9.37552 8.85301 9.375 8.43744ZM12.6562 10.7812C12.6562 10.9055 12.6069 11.0247 12.519 11.1126C12.431 11.2006 12.3118 11.2499 12.1875 11.2499C12.0632 11.2499 11.944 11.2006 11.856 11.1126C11.7681 11.0247 11.7188 10.9055 11.7188 10.7812V2.34369C11.7188 2.21937 11.7681 2.10014 11.856 2.01224C11.944 1.92433 12.0632 1.87494 12.1875 1.87494C12.3118 1.87494 12.431 1.92433 12.519 2.01224C12.6069 2.10014 12.6562 2.21937 12.6562 2.34369V10.7812ZM18.2812 28.1249C18.0327 28.1246 17.7944 28.0258 17.6187 27.85C17.4429 27.6743 17.344 27.436 17.3438 27.1874V26.2499H19.2188V27.1874C19.2185 27.436 19.1196 27.6743 18.9438 27.85C18.7681 28.0258 18.5298 28.1246 18.2812 28.1249ZM21.5625 19.2187C21.5631 19.2791 21.5515 19.3391 21.5283 19.3949C21.5051 19.4507 21.4709 19.5013 21.4277 19.5436C21.4246 19.5466 21.4216 19.5495 21.4185 19.5528C21.3763 19.596 21.3257 19.6301 21.2699 19.6533C21.2141 19.6764 21.1542 19.688 21.0938 19.6874H17.8125V20.6249H20.625C20.7493 20.6251 20.8684 20.6745 20.9563 20.7624C21.0442 20.8503 21.0936 20.9694 21.0938 21.0937C21.0943 21.1541 21.0827 21.2141 21.0595 21.2699C21.0364 21.3257 21.0022 21.3763 20.959 21.4186C20.9559 21.4216 20.9528 21.4245 20.9498 21.4278C20.9075 21.471 20.8569 21.5051 20.8011 21.5283C20.7453 21.5514 20.6854 21.563 20.625 21.5624H17.3438V22.4999H20.1562C20.2805 22.5001 20.3997 22.5495 20.4876 22.6374C20.5754 22.7253 20.6249 22.8444 20.625 22.9687C20.6256 23.0291 20.614 23.0891 20.5908 23.1449C20.5676 23.2007 20.5334 23.2513 20.4902 23.2936C20.4871 23.2966 20.4841 23.2995 20.481 23.3028C20.4388 23.346 20.3882 23.3801 20.3324 23.4033C20.2766 23.4264 20.2167 23.438 20.1562 23.4374H16.875V24.3749H19.6875C19.7479 24.3744 19.8079 24.386 19.8637 24.4091C19.9195 24.4323 19.9701 24.4665 20.0124 24.5097C20.0154 24.5128 20.0183 24.5159 20.0216 24.5189C20.0648 24.5612 20.0989 24.6117 20.1221 24.6676C20.1452 24.7234 20.1568 24.7833 20.1562 24.8437C20.1561 24.968 20.1067 25.0871 20.0188 25.175C19.9309 25.2629 19.8118 25.3123 19.6875 25.3124H15.6891C14.7099 25.3124 13.7383 25.1413 12.818 24.8068C12.515 24.6974 12.2189 24.5703 11.9309 24.426C11.8652 24.3925 11.7925 24.375 11.7188 24.3749H10.7812V19.6874H10.9641C11.2731 19.6877 11.5775 19.6114 11.8499 19.4655C12.1224 19.3196 12.3545 19.1085 12.5256 18.8511L13.0471 18.0718L13.3789 17.5719C13.6041 17.2338 13.952 16.9966 14.349 16.9106C14.746 16.8245 15.1609 16.8964 15.5058 17.111C15.7529 17.2629 15.9523 17.4813 16.0812 17.7411L16.117 17.8127H15V18.7502H21.0938C21.218 18.7503 21.3371 18.7997 21.425 18.8875C21.5128 18.9754 21.5623 19.0945 21.5625 19.2187ZM17.3438 17.8124V13.1249H19.2188V17.8124H17.3438ZM20.1562 11.7187C20.1561 11.843 20.1067 11.9621 20.0188 12.05C19.9309 12.1379 19.8118 12.1873 19.6875 12.1874H16.875C16.7507 12.1874 16.6315 12.1381 16.5435 12.0501C16.4556 11.9622 16.4062 11.843 16.4062 11.7187C16.4062 11.5944 16.4556 11.4751 16.5435 11.3872C16.6315 11.2993 16.7507 11.2499 16.875 11.2499H19.6875C19.8118 11.2501 19.9309 11.2995 20.0188 11.3874C20.1067 11.4753 20.1561 11.5944 20.1562 11.7187ZM24.8438 10.7812C24.8438 10.9055 24.7944 11.0247 24.7065 11.1126C24.6185 11.2006 24.4993 11.2499 24.375 11.2499C24.2507 11.2499 24.1315 11.2006 24.0435 11.1126C23.9556 11.0247 23.9062 10.9055 23.9062 10.7812V2.34369C23.9062 2.21937 23.9556 2.10014 24.0435 2.01224C24.1315 1.92433 24.2507 1.87494 24.375 1.87494C24.4993 1.87494 24.6185 1.92433 24.7065 2.01224C24.7944 2.10014 24.8438 2.21937 24.8438 2.34369V10.7812ZM27.1875 8.43744C27.187 8.85301 27.0487 9.25667 26.7942 9.58522C26.5397 9.91377 26.1835 10.1487 25.7812 10.2531V2.8718C26.1835 2.97623 26.5397 3.21112 26.7942 3.53966C27.0487 3.86821 27.187 4.27187 27.1875 4.68744V8.43744Z" fill="white"/>
</svg>
