<svg width="30" height="30" viewBox="0 0 30 30" fill="none" xmlns="http://www.w3.org/2000/svg">
<g clip-path="url(#clip0_2962_52177)">
<path d="M14.4841 15.7683C18.208 15.7683 21.2377 12.7404 21.2377 9.01854C21.2377 7.70064 20.8573 6.42371 20.1379 5.32553C20.0047 5.12251 19.7323 5.06575 19.5293 5.19896C19.3261 5.33194 19.2695 5.60431 19.4025 5.80756C20.0278 6.76199 20.3586 7.8723 20.3586 9.01854C20.3586 12.2556 17.7232 14.8891 14.4841 14.8891C11.2447 14.8891 8.6096 12.2556 8.6096 9.01854C8.6096 5.78169 11.2447 3.14818 14.4841 3.14818C15.7912 3.14818 17.0281 3.56795 18.0615 4.36194C18.2542 4.51003 18.53 4.47363 18.6781 4.28137C18.826 4.08888 18.7898 3.81285 18.5973 3.66499C17.409 2.75175 15.9865 2.26904 14.4841 2.26904C10.7599 2.26904 7.73047 5.29692 7.73047 9.01854C7.73047 12.7404 10.7599 15.7683 14.4841 15.7683V15.7683Z" fill="white"/>
<path d="M27.5393 14.6329L27.3235 14.2593C26.9465 13.6063 26.1083 13.382 25.4558 13.7588L24.5103 14.3042C24.2345 14.4633 24.0273 14.7077 23.9159 15.0016C23.6962 14.9462 23.4606 14.949 23.232 15.0188C23.2018 15.0279 23.1725 15.0405 23.145 15.0558L19.4275 17.1414H18.4039C21.422 15.6807 23.5082 12.5887 23.5082 9.01863C23.5085 4.04572 19.4602 0 14.4841 0C9.508 0 5.45976 4.04572 5.45976 9.01863C5.45976 12.1584 7.07361 14.9279 9.51555 16.5436L6.86372 15.0558C6.83603 15.0403 6.80673 15.0279 6.77675 15.0188C6.54787 14.949 6.31258 14.946 6.09285 15.0016C5.98139 14.7077 5.77425 14.4633 5.49844 14.3042L4.55293 13.7588C3.90016 13.382 3.06223 13.6063 2.68503 14.2593L2.46919 14.6329C2.28632 14.9494 2.23779 15.3179 2.33232 15.6711C2.42685 16.024 2.65344 16.3193 2.96999 16.5017L3.9155 17.0473C4.13019 17.1712 4.36479 17.23 4.59665 17.23C4.66486 17.23 4.73261 17.2243 4.79967 17.2142C4.80676 17.4969 4.85826 17.7811 4.956 18.0574C4.95668 18.0595 4.9576 18.0613 4.95828 18.0634L5.59915 19.7939C5.66507 19.9711 5.83284 20.0807 6.0116 20.0807C6.06218 20.0807 6.11368 20.072 6.16403 20.0533C6.39177 19.969 6.50804 19.7161 6.42359 19.4884L5.78386 17.761C5.64241 17.3602 5.64607 16.9347 5.78226 16.5482C5.78249 16.5477 5.78294 16.5472 5.78317 16.5468L6.09583 15.9917C6.18944 15.8741 6.33798 15.8205 6.48264 15.8501L10.2509 17.9642C10.3166 18.0011 10.3908 18.0203 10.4661 18.0203H13.9378C14.1147 18.0311 14.2928 18.037 14.4722 18.0373C14.2932 18.4628 13.8723 18.7624 13.382 18.7624H10.1965L9.12462 18.3121C9.1237 18.3117 9.12302 18.3115 9.1221 18.3112C9.12027 18.3103 9.11821 18.3094 9.11615 18.3085L7.98799 17.8347C7.76415 17.7409 7.50665 17.8459 7.41258 18.0698C7.31851 18.2936 7.4238 18.5513 7.64765 18.6454L8.56157 19.0292L8.8804 20.6598L6.59822 20.9232C6.53505 20.9306 6.47669 20.9512 6.42519 20.9816C6.37254 21.013 6.32539 21.0558 6.28992 21.1059L3.97272 24.3729C3.967 24.3812 3.9615 24.3892 3.95624 24.3977C3.76467 24.7105 3.72003 25.0875 3.83264 25.4359L4.49365 28.2545C4.54881 28.4887 4.75549 28.6523 4.99605 28.6523H6.06493C6.20958 28.6523 6.34851 28.591 6.44602 28.4843C6.54352 28.3775 6.59181 28.2337 6.57877 28.0895L6.40733 26.2049C6.38651 25.9758 6.50186 25.754 6.70145 25.6393L7.68289 25.0758L8.02805 25.9261C8.03056 25.9325 8.03331 25.9389 8.03629 25.9454C8.21092 26.323 8.52403 26.5057 8.80006 26.6668C8.8273 26.6826 11.5489 28.2415 11.5489 28.2415C11.6554 28.3019 11.7723 28.3317 11.8884 28.3317C12.0435 28.3317 12.198 28.2786 12.3264 28.1742L12.8945 27.7057C13.0399 27.5855 13.1239 27.4084 13.125 27.2198C13.1264 27.0316 13.0449 26.8536 12.9021 26.732L10.7202 24.8657C10.6581 24.8126 10.6153 24.7403 10.5993 24.6613L9.53752 19.4392L9.86047 19.5749C9.96599 19.6191 10.0775 19.6417 10.1917 19.6417H13.3823C14.0401 19.6417 14.6267 19.3316 15.0044 18.8505C15.3822 19.3316 15.9686 19.6417 16.6267 19.6417H19.7534C19.91 19.6417 20.0624 19.6111 20.2071 19.5502L20.4792 19.436L20.1764 20.9482L20.1341 21.1356C20.118 21.207 20.105 21.2787 20.0936 21.3501L19.4092 24.6622C19.3934 24.7403 19.3504 24.8126 19.289 24.8655L17.1062 26.7325C16.9634 26.8547 16.8826 27.0328 16.8842 27.2209C16.8858 27.4088 16.9698 27.5858 17.1156 27.7066L17.6841 28.1754C17.8091 28.2774 17.9643 28.3301 18.1206 28.3301C18.2378 28.3301 18.3557 28.3006 18.4616 28.2406C18.4616 28.2406 21.1819 26.6824 21.2094 26.6663C21.4856 26.5052 21.799 26.3228 21.9727 25.9447C21.9754 25.9387 21.9782 25.9325 21.9807 25.9264L22.3256 25.0758L23.3073 25.6396C23.5066 25.754 23.6222 25.976 23.6014 26.2049L23.43 28.0898C23.4167 28.2337 23.4652 28.3777 23.5627 28.4843C23.6602 28.5912 23.7991 28.6523 23.9438 28.6523H25.0127C25.2532 28.6523 25.4599 28.4889 25.5151 28.2543L26.1761 25.4359C26.2885 25.0877 26.2438 24.7108 26.0525 24.3979C25.9255 24.191 25.6552 24.1257 25.448 24.2525C25.2409 24.3793 25.1759 24.6499 25.3027 24.857C25.361 24.9522 25.3736 25.0674 25.3372 25.1729C25.3324 25.1871 25.3283 25.2013 25.3249 25.2157L24.725 27.7732H24.3416L24.4769 26.2846C24.5288 25.7146 24.2416 25.1621 23.7451 24.8769L22.1469 23.9594C21.2787 23.4608 20.8164 22.5009 20.9555 21.525L22.9949 21.7605L23.115 21.7744L24.3235 23.478C24.4638 23.676 24.7383 23.7229 24.9362 23.5824C25.1342 23.4418 25.1809 23.1674 25.0406 22.9694L23.8532 21.2954L25.0504 18.0634C25.0511 18.0613 25.0518 18.0595 25.0527 18.0574C25.1505 17.7811 25.202 17.4969 25.2088 17.2142C25.2761 17.2243 25.3439 17.23 25.4121 17.23C25.6437 17.23 25.8785 17.1712 26.0932 17.0471L27.0387 16.5017C27.3553 16.319 27.5819 16.024 27.6764 15.6711C27.7707 15.3179 27.7222 14.9494 27.5393 14.6329V14.6329ZM4.35472 16.2859L3.40921 15.7402C3.29614 15.675 3.21535 15.5697 3.18147 15.4436C3.14783 15.3175 3.16499 15.1856 3.23046 15.0726L3.44629 14.699C3.5811 14.4658 3.88048 14.3857 4.11348 14.5203L5.05899 15.0657C5.17206 15.1309 5.25308 15.2364 5.28673 15.3625C5.30802 15.4413 5.30893 15.5225 5.29085 15.5999C5.16863 15.7741 5.06952 15.9595 4.99239 16.152C4.84705 16.3499 4.57239 16.4113 4.35472 16.2859V16.2859ZM6.2636 24.8769C5.76715 25.1621 5.47991 25.7146 5.53186 26.2846L5.66713 27.7732H5.28375L4.68385 25.2157C4.68042 25.2013 4.6763 25.1871 4.67149 25.1729C4.63648 25.0713 4.647 24.9605 4.69988 24.8673L6.89371 21.7744L9.05321 21.525C9.19237 22.5007 8.73003 23.4606 7.86188 23.9594L6.2636 24.8769ZM10.1482 25.5334L12.1111 27.2124L11.8691 27.412L9.32741 25.9568C9.29903 25.9401 9.27087 25.9236 9.24295 25.9074C9.02391 25.7796 8.89528 25.7005 8.83783 25.584L8.45033 24.6291C8.87766 24.353 9.22487 23.9919 9.47778 23.5773L9.73802 24.838C9.79295 25.1065 9.93829 25.3535 10.1482 25.5334V25.5334ZM6.3389 9.01863C6.3389 4.53049 9.99277 0.879135 14.4841 0.879135C18.9752 0.879135 22.6293 4.53049 22.6293 9.01863C22.6293 13.3326 19.2533 16.8729 15.0032 17.1414H13.965C9.71468 16.8729 6.3389 13.3326 6.3389 9.01863V9.01863ZM21.5582 24.6291L21.1704 25.5844C21.1137 25.7002 20.9853 25.7792 20.7665 25.9067C20.7383 25.9232 20.7097 25.9399 20.6809 25.9568L18.1398 27.4118L17.8977 27.212L19.861 25.5329C20.0702 25.3535 20.2155 25.1065 20.2702 24.8389L20.5309 23.5773C20.7839 23.9916 21.1308 24.353 21.5582 24.6291V24.6291ZM24.2249 17.761L23.0679 20.8839L21.1304 20.66L21.4579 19.0247L22.3609 18.6454C22.5847 18.5513 22.69 18.2936 22.5959 18.07C22.5018 17.8461 22.2441 17.7409 22.0205 17.8347L19.8665 18.7397C19.8303 18.7548 19.7923 18.7626 19.7532 18.7626H16.6264C16.1298 18.7626 15.7036 18.455 15.5287 18.0206H19.5424C19.6177 18.0206 19.6919 18.0011 19.7576 17.9642L23.5259 15.8503C23.6707 15.8208 23.8193 15.8743 23.9129 15.992C23.9129 15.992 23.9317 16.0158 23.9319 16.016C23.9543 16.0696 24.2253 16.5468 24.2253 16.5468C24.2256 16.5472 24.2258 16.5477 24.226 16.5482C24.3627 16.9347 24.3661 17.3602 24.2249 17.761V17.761ZM26.827 15.4436C26.7932 15.5697 26.7124 15.675 26.5993 15.7402L25.6538 16.2859C25.4363 16.4111 25.1615 16.3499 25.0161 16.152C24.939 15.9595 24.8401 15.7741 24.7179 15.6001C24.6996 15.5228 24.7007 15.4415 24.7218 15.3625C24.7556 15.2364 24.8364 15.1309 24.9497 15.0657L25.8952 14.5203C25.9719 14.4759 26.0557 14.455 26.1383 14.455C26.3075 14.455 26.4718 14.5425 26.5624 14.699L26.7783 15.0726C26.8435 15.1856 26.8609 15.3175 26.827 15.4436V15.4436Z" fill="white"/>
<path d="M25.6435 29.1211H23.8674C23.6246 29.1211 23.4277 29.3179 23.4277 29.5605C23.4277 29.8034 23.6246 30.0002 23.8674 30.0002H25.6435C25.8864 30.0002 26.083 29.8034 26.083 29.5605C26.083 29.3179 25.8864 29.1211 25.6435 29.1211Z" fill="white"/>
<path d="M17.8855 29.0999L16.4545 27.8486C16.2717 27.6886 15.994 27.7071 15.8343 27.89C15.6745 28.0727 15.693 28.3505 15.8757 28.5103L17.3067 29.7616C17.39 29.8346 17.4932 29.8703 17.596 29.8703C17.7182 29.8703 17.8402 29.8195 17.9269 29.7202C18.0867 29.5373 18.0681 29.2596 17.8855 29.0999V29.0999Z" fill="white"/>
<path d="M6.14159 29.1211H4.36546C4.12262 29.1211 3.92578 29.3179 3.92578 29.5605C3.92578 29.8034 4.12262 30.0002 4.36546 30.0002H6.14159C6.3842 30.0002 6.58104 29.8034 6.58104 29.5605C6.58104 29.3179 6.3842 29.1211 6.14159 29.1211Z" fill="white"/>
<path d="M13.5539 27.8485L12.123 29.0998C11.9401 29.2596 11.9215 29.5372 12.0813 29.7201C12.1683 29.8194 12.29 29.8702 12.4125 29.8702C12.515 29.8702 12.6183 29.8345 12.7016 29.7615L14.1325 28.5102C14.3152 28.3504 14.334 28.0726 14.174 27.8899C14.0144 27.7073 13.7366 27.6885 13.5539 27.8485Z" fill="white"/>
<path d="M13.392 10.4025V10.8071H14.9143V11.1979H13.392V12.0002H12.6994V11.1979H12V10.8071H12.6994V7.2002H14.5851C15.2114 7.2002 15.7006 7.33962 16.0526 7.61848C16.4046 7.89277 16.5806 8.28591 16.5806 8.79791C16.5806 9.31448 16.4046 9.7122 16.0526 9.99105C15.7006 10.2653 15.2114 10.4025 14.5851 10.4025H13.392ZM15.888 8.80477C15.888 8.4802 15.776 8.23105 15.552 8.05734C15.328 7.88362 15.0057 7.79677 14.5851 7.79677H13.392V9.83334H14.5851C15.0011 9.83334 15.3211 9.7442 15.5451 9.56591C15.7737 9.38305 15.888 9.12934 15.888 8.80477Z" fill="white"/>
</g>
<defs>
<clipPath id="clip0_2962_52177">
<rect width="30" height="30" fill="white"/>
</clipPath>
</defs>
</svg>
