<svg width="30" height="30" viewBox="0 0 30 30" fill="none" xmlns="http://www.w3.org/2000/svg">
<path d="M25.5093 24.8052L23.2357 20.6232V13.7313C23.2357 10.9606 21.7002 8.41145 19.2132 7.02153C19.4657 6.48149 19.6073 5.88403 19.6073 5.25496C19.6073 2.86614 17.5813 0.922852 15.0907 0.922852C12.6003 0.922852 10.5739 2.86614 10.5739 5.25496C10.5739 5.90215 10.724 6.51619 10.9903 7.06819L10.9477 7.09314C9.78086 7.77314 8.80428 8.73223 8.124 9.86699C7.42233 11.0375 7.05119 12.3737 7.05119 13.7313V20.6232L4.77765 24.8052C4.36321 25.5679 4.96189 26.5082 5.85438 26.5082H11.9509C12.2023 27.8783 13.4513 28.9229 14.9507 28.9229C16.45 28.9229 17.6991 27.8783 17.9505 26.5082H24.4325C25.3241 26.5082 25.9244 25.569 25.5093 24.8052ZM15.0907 2.01865C16.9512 2.01865 18.4649 3.47061 18.4649 5.25496C18.4649 7.03931 16.9512 8.49109 15.0907 8.49109C13.2302 8.49109 11.7166 7.03931 11.7166 5.25496C11.7168 3.47061 13.2304 2.01865 15.0907 2.01865ZM14.9507 27.8271C14.0844 27.8271 13.3517 27.2689 13.1219 26.5082H16.7795C16.5495 27.2689 15.8171 27.8271 14.9507 27.8271V27.8271ZM24.4938 25.3793C24.473 25.4124 24.4438 25.4124 24.4325 25.4124H5.85438C5.79397 25.4017 5.77277 25.3683 5.79077 25.3119L7.96898 21.3052H9.18932C9.92269 21.3052 9.92394 20.2094 9.18932 20.2094H8.19402V13.7313C8.19402 12.5651 8.51224 11.4177 9.11448 10.4132C9.69908 9.43838 10.5381 8.61414 11.5427 8.02881L11.597 7.99702C12.4259 8.96687 13.684 9.58706 15.0907 9.58706C16.5161 9.58706 17.7887 8.94978 18.6168 7.9572C20.7655 9.14836 22.0931 11.3441 22.0931 13.7313V20.2094H13.7451C13.0118 20.2094 13.0105 21.3052 13.7451 21.3052H22.3181L24.4962 25.3119C24.5011 25.3213 24.5149 25.3463 24.4938 25.3793V25.3793Z" fill="white"/>
<path d="M11.2383 20.2954C10.9389 20.2954 10.6885 20.5467 10.6885 20.8458C10.6885 21.1448 10.9391 21.396 11.2383 21.3961C11.5288 21.3961 11.7753 21.1592 11.7881 20.8698C11.8019 20.5618 11.5468 20.2954 11.2383 20.2954Z" fill="white"/>
</svg>
