<svg width="30" height="30" viewBox="0 0 30 30" fill="none" xmlns="http://www.w3.org/2000/svg">
<g clip-path="url(#clip0_2962_52221)">
<path d="M24.3968 22.4627C24.1541 22.4627 23.9574 22.6594 23.9574 22.9022V28.3887C23.9574 28.7926 23.6288 29.1211 23.2249 29.1211H6.9401C6.53621 29.1211 6.20768 28.7926 6.20768 28.3887V5.42695C6.20768 5.02307 6.53621 4.69453 6.9401 4.69453H23.2249C23.6288 4.69453 23.9574 5.02307 23.9574 5.42695V11.5477C23.9574 11.7904 24.1541 11.9871 24.3968 11.9871C24.6395 11.9871 24.8363 11.7904 24.8363 11.5477V5.42695C24.8363 4.5385 24.1135 3.81563 23.2249 3.81563H20.9831V1.61133C20.9831 0.722871 20.2603 0 19.3718 0H3.08691C2.1984 0 1.47559 0.722871 1.47559 1.61133V7.91953C1.47559 8.16229 1.67234 8.35898 1.91504 8.35898C2.15773 8.35898 2.35449 8.16229 2.35449 7.91953V1.61133C2.35449 1.20744 2.68303 0.878906 3.08691 0.878906H19.3718C19.7756 0.878906 20.1042 1.20744 20.1042 1.61133V3.81563H6.9401C6.05158 3.81563 5.32877 4.5385 5.32877 5.42695V25.3055H3.08691C2.68303 25.3055 2.35449 24.9769 2.35449 24.573V9.7125C2.35449 9.46975 2.15773 9.27305 1.91504 9.27305C1.67234 9.27305 1.47559 9.46975 1.47559 9.7125V24.573C1.47559 25.4615 2.1984 26.1844 3.08691 26.1844H5.32877V28.3887C5.32877 29.2771 6.05158 30 6.9401 30H23.2249C24.1135 30 24.8363 29.2771 24.8363 28.3887V22.9022C24.8363 22.6595 24.6395 22.4627 24.3968 22.4627Z" fill="white"/>
<path d="M21.4919 6.95068C21.4919 6.4176 21.0582 5.98389 20.5251 5.98389H9.79785C9.26477 5.98389 8.83105 6.4176 8.83105 6.95068V7.87031C8.83105 8.4034 9.26477 8.83711 9.79785 8.83711H20.5251C21.0582 8.83711 21.4919 8.4034 21.4919 7.87031V6.95068H21.4919ZM20.613 7.87031C20.613 7.91877 20.5736 7.9582 20.5251 7.9582H9.79785C9.74939 7.9582 9.70996 7.91877 9.70996 7.87031V6.95068C9.70996 6.90223 9.74939 6.86279 9.79785 6.86279H20.5251C20.5735 6.86279 20.613 6.90223 20.613 6.95068V7.87031H20.613Z" fill="white"/>
<path d="M13.7854 11.3672C13.7854 10.6403 13.194 10.0488 12.467 10.0488H9.99219C9.26521 10.0488 8.67383 10.6403 8.67383 11.3672V13.842C8.67383 14.5689 9.26521 15.1604 9.99219 15.1604H12.467C13.194 15.1604 13.7854 14.5689 13.7854 13.842V11.3672ZM12.9065 13.842C12.9065 14.0844 12.7094 14.2815 12.467 14.2815H9.99219C9.74984 14.2815 9.55273 14.0844 9.55273 13.842V11.3672C9.55273 11.1248 9.74984 10.9277 9.99219 10.9277H12.467C12.7094 10.9277 12.9065 11.1248 12.9065 11.3672V13.842Z" fill="white"/>
<path d="M12.1559 11.8908C11.9729 11.7314 11.6953 11.7505 11.5359 11.9335L11.0439 12.4984L10.8927 12.3563C10.7158 12.1901 10.4377 12.1988 10.2715 12.3757C10.1053 12.5526 10.114 12.8307 10.2909 12.9969L10.5276 13.2193C10.6693 13.3524 10.8589 13.427 11.0526 13.427C11.0652 13.427 11.0779 13.4266 11.0905 13.426C11.2973 13.4156 11.4938 13.32 11.6296 13.164L12.1986 12.5108C12.358 12.3278 12.3389 12.0502 12.1559 11.8908Z" fill="white"/>
<path d="M21.4917 14.7212C21.4917 14.4784 21.295 14.2817 21.0523 14.2817H15.124C14.8813 14.2817 14.6846 14.4784 14.6846 14.7212C14.6846 14.9639 14.8813 15.1606 15.124 15.1606H21.0522C21.295 15.1606 21.4917 14.9639 21.4917 14.7212Z" fill="white"/>
<path d="M21.0522 12.5479H15.124C14.8813 12.5479 14.6846 12.7446 14.6846 12.9873C14.6846 13.2301 14.8813 13.4268 15.124 13.4268H21.0522C21.2949 13.4268 21.4916 13.2301 21.4916 12.9873C21.4916 12.7446 21.2949 12.5479 21.0522 12.5479Z" fill="white"/>
<path d="M12.467 22.4629H9.99219C9.26521 22.4629 8.67383 23.0543 8.67383 23.7812V26.2561C8.67383 26.983 9.26521 27.5744 9.99219 27.5744H12.467C13.194 27.5744 13.7854 26.983 13.7854 26.2561V23.7812C13.7854 23.0543 13.1939 22.4629 12.467 22.4629ZM12.9065 26.2561C12.9065 26.4985 12.7094 26.6956 12.467 26.6956H9.99219C9.74984 26.6956 9.55273 26.4985 9.55273 26.2561V23.7813C9.55273 23.539 9.74984 23.3419 9.99219 23.3419H12.467C12.7094 23.3419 12.9065 23.539 12.9065 23.7813V26.2561Z" fill="white"/>
<path d="M12.1559 24.3045C11.9728 24.1449 11.6953 24.1641 11.5359 24.3472L11.0439 24.9121L10.8927 24.77C10.7158 24.6038 10.4376 24.6125 10.2715 24.7894C10.1053 24.9663 10.114 25.2445 10.2909 25.4106L10.5275 25.6329C10.6692 25.766 10.8588 25.8406 11.0526 25.8406C11.0652 25.8406 11.0778 25.8403 11.0903 25.8397C11.2971 25.8293 11.4937 25.7338 11.6297 25.5777L12.1986 24.9244C12.358 24.7414 12.3389 24.4638 12.1559 24.3045Z" fill="white"/>
<path d="M13.7854 17.5742C13.7854 16.8473 13.194 16.2559 12.467 16.2559H9.99219C9.26521 16.2559 8.67383 16.8473 8.67383 17.5742V20.049C8.67383 20.7759 9.26521 21.3673 9.99219 21.3673H12.467C13.194 21.3673 13.7854 20.7759 13.7854 20.049V17.5742ZM12.9065 20.049C12.9065 20.2913 12.7094 20.4884 12.467 20.4884H9.99219C9.74984 20.4884 9.55273 20.2913 9.55273 20.049V17.5742C9.55273 17.3319 9.74984 17.1348 9.99219 17.1348H12.467C12.7094 17.1348 12.9065 17.3319 12.9065 17.5742V20.049Z" fill="white"/>
<path d="M12.1371 17.9041C11.9655 17.7325 11.6872 17.7325 11.5156 17.9041L11.2296 18.1901L10.9435 17.9041C10.7719 17.7325 10.4936 17.7325 10.3221 17.9041C10.1505 18.0758 10.1505 18.354 10.3221 18.5256L10.6081 18.8116L10.3221 19.0976C10.1505 19.2692 10.1505 19.5475 10.3221 19.719C10.4079 19.8049 10.5204 19.8478 10.6328 19.8478C10.7452 19.8478 10.8577 19.8049 10.9435 19.7191L11.2296 19.433L11.5156 19.7191C11.6014 19.8049 11.7139 19.8478 11.8263 19.8478C11.9388 19.8478 12.0513 19.8049 12.1371 19.719C12.3087 19.5474 12.3087 19.2691 12.1371 19.0976L11.8511 18.8116L12.1371 18.5256C12.3087 18.354 12.3087 18.0758 12.1371 17.9041Z" fill="white"/>
<path d="M19.053 20.9277C19.053 20.685 18.8562 20.4883 18.6135 20.4883H15.124C14.8813 20.4883 14.6846 20.685 14.6846 20.9277C14.6846 21.1705 14.8813 21.3672 15.124 21.3672H18.6135C18.8563 21.3672 19.053 21.1705 19.053 20.9277Z" fill="white"/>
<path d="M20.0295 19.1943C20.0295 18.9516 19.8328 18.7549 19.5901 18.7549H15.124C14.8813 18.7549 14.6846 18.9516 14.6846 19.1943C14.6846 19.4371 14.8813 19.6338 15.124 19.6338H19.5901C19.8328 19.6338 20.0295 19.4371 20.0295 19.1943Z" fill="white"/>
<path d="M16.5803 26.6953H15.124C14.8813 26.6953 14.6846 26.892 14.6846 27.1348C14.6846 27.3775 14.8813 27.5742 15.124 27.5742H16.5803C16.823 27.5742 17.0198 27.3775 17.0198 27.1348C17.0198 26.892 16.823 26.6953 16.5803 26.6953Z" fill="white"/>
<path d="M16.5803 24.9619H15.124C14.8813 24.9619 14.6846 25.1586 14.6846 25.4014C14.6846 25.6441 14.8813 25.8408 15.124 25.8408H16.5803C16.823 25.8408 17.0198 25.6441 17.0198 25.4014C17.0198 25.1586 16.823 24.9619 16.5803 24.9619Z" fill="white"/>
<path d="M27.9019 12.4424L27.0376 11.9239C26.7439 11.7478 26.3993 11.6964 26.0671 11.7795C25.7348 11.8626 25.4549 12.07 25.2787 12.3637L20.4606 20.3943C20.3358 20.6024 20.4033 20.8723 20.6114 20.9972C20.8195 21.1221 21.0895 21.0546 21.2143 20.8464L25.1511 14.285L26.7066 15.2183L20.772 25.1095L19.2164 24.1763L20.3051 22.3618C20.4299 22.1537 20.3624 21.8838 20.1543 21.7589C19.9462 21.634 19.6762 21.7015 19.5514 21.9096L18.2367 24.1009C18.2076 24.1494 18.1894 24.2012 18.1805 24.2538C18.1804 24.2544 18.18 24.2547 18.1799 24.2553L17.8326 26.3576C17.7623 26.7833 17.9559 27.2017 18.3258 27.4237C18.4931 27.524 18.6789 27.5737 18.8639 27.5737C19.0881 27.5737 19.311 27.5009 19.4986 27.3571L21.19 26.0613C21.1905 26.0609 21.1906 26.0605 21.1911 26.0601C21.2341 26.0269 21.2711 25.9861 21.2996 25.9385L28.3416 14.2013C28.7053 13.5951 28.508 12.8061 27.9019 12.4424ZM18.9641 26.6595C18.8863 26.7191 18.8141 26.6917 18.7781 26.6701C18.742 26.6484 18.6838 26.5977 18.6998 26.5009L18.9418 25.0364L20.1424 25.7568L18.9641 26.6595ZM26.2803 12.6322C26.3847 12.606 26.4931 12.6222 26.5855 12.6776L27.4497 13.1961C27.6403 13.3104 27.7023 13.5586 27.588 13.7492L27.1587 14.4645L25.6032 13.5312L26.0324 12.8158C26.0878 12.7235 26.1758 12.6583 26.2803 12.6322Z" fill="white"/>
</g>
<defs>
<clipPath id="clip0_2962_52221">
<rect width="30" height="30" fill="white"/>
</clipPath>
</defs>
</svg>
