<svg width="30" height="30" viewBox="0 0 30 30" fill="none" xmlns="http://www.w3.org/2000/svg">
<g clip-path="url(#clip0_2962_52157)">
<path d="M1.27801 23.1707C1.50424 23.6064 1.68037 24.0664 1.80366 24.5418C1.86565 24.8652 2.06008 25.1482 2.33983 25.3218L4.04374 26.3712C4.32784 26.5451 4.68513 26.5451 4.96923 26.3712L6.6752 25.3188C6.95449 25.1445 7.14824 24.8613 7.20977 24.5379C7.33352 24.0616 7.51057 23.6007 7.73748 23.164C7.88708 23.1359 8.03233 23.0886 8.1698 23.0231C8.6966 22.7946 9.02827 22.2649 9.0038 21.6909C9.08088 21.018 8.65702 20.3889 8.00442 20.2075V18.9943C8.00442 17.4297 6.99658 16.9319 6.40139 16.8306C5.70167 16.135 5.41551 16.135 3.84039 16.135C2.38284 16.135 1.57926 17.3281 1.22997 18.0384C1.08266 18.3376 1.00672 18.667 1.00855 19.0007V20.2075C0.355262 20.3889 -0.0685982 21.0189 0.0091743 21.6925C-0.00546524 22.4362 0.540544 23.0723 1.27801 23.1707ZM1.23546 21.1795H1.50835C1.78422 21.1795 2.00793 20.9555 2.00793 20.6797V19.0007C2.00656 18.8202 2.04704 18.642 2.12642 18.4801C2.37323 17.9803 2.92587 17.1344 3.84039 17.1344C5.28947 17.1344 5.28947 17.1344 5.69984 17.5415L5.81672 17.6605C5.91028 17.7527 6.03517 17.8062 6.16647 17.8103C6.36342 17.8158 7.00642 17.9187 7.00642 18.9957V20.6813C7.00642 20.9571 7.23013 21.1808 7.50622 21.1808H7.77911C7.7814 21.1808 8.00579 21.1948 8.00579 21.6925C8.02844 21.8785 7.92116 22.0558 7.74594 22.1223C7.64186 22.1699 7.52955 22.1978 7.41518 22.2042C7.2315 22.2042 7.06269 22.3049 6.97554 22.4666C6.65255 23.062 6.40253 23.6943 6.23098 24.3494C6.22229 24.4004 6.19278 24.4452 6.14955 24.4734L4.50649 25.4846L2.86709 24.4729C2.82317 24.4452 2.79297 24.4004 2.78405 24.3494C2.61227 23.6936 2.36202 23.0611 2.03904 22.465C1.95166 22.3035 1.78285 22.2026 1.59917 22.2026C1.4514 22.2214 1.30249 22.1761 1.18994 22.0787C1.07717 21.981 1.0113 21.8401 1.00855 21.6909C1.00855 21.3792 1.09799 21.1923 1.23546 21.1795Z" fill="white"/>
<path d="M28.9915 20.2075V18.9943C28.9915 17.4297 27.9837 16.9319 27.3885 16.8306C26.689 16.135 26.4026 16.135 24.8275 16.135C23.37 16.135 22.5664 17.3281 22.2171 18.0384C22.0698 18.3376 21.9941 18.667 21.9959 19.0007V20.2075C21.3426 20.3889 20.9185 21.0189 20.9965 21.6925C20.981 22.4369 21.5272 23.0739 22.2651 23.1721C22.4914 23.608 22.6677 24.068 22.7908 24.5434C22.8528 24.8668 23.0472 25.1495 23.327 25.3234L25.0311 26.3726C25.315 26.5467 25.6725 26.5467 25.9563 26.3726L27.6623 25.3204C27.9416 25.1459 28.1356 24.8629 28.1971 24.5392C28.3206 24.063 28.4977 23.6023 28.7248 23.1656C28.8742 23.1375 29.0194 23.0902 29.1569 23.0247C29.6844 22.796 30.0161 22.2655 29.9909 21.6909C30.068 21.018 29.6441 20.3889 28.9915 20.2075ZM28.7317 22.1224C28.6276 22.1699 28.5153 22.1978 28.4009 22.2042C28.2172 22.2042 28.0484 22.3049 27.9613 22.4666C27.6383 23.062 27.3883 23.6943 27.2167 24.3494C27.208 24.4004 27.1785 24.4452 27.1353 24.4734L25.4936 25.4846L23.8542 24.4729C23.8103 24.4452 23.7803 24.4004 23.7712 24.3494C23.5994 23.6936 23.3494 23.0611 23.0262 22.465C22.939 22.3035 22.7702 22.2026 22.5865 22.2026C22.4385 22.2214 22.2896 22.1761 22.1771 22.0787C22.0643 21.981 21.9984 21.8401 21.9959 21.6909C21.9959 21.3792 22.0853 21.1914 22.2226 21.1795H22.4955C22.7716 21.1795 22.9953 20.9555 22.9953 20.6797V19.0007C22.9937 18.8202 23.0342 18.642 23.1135 18.4801C23.3606 17.9803 23.9132 17.1344 24.8275 17.1344C26.2791 17.1344 26.2791 17.1344 26.687 17.5415L26.8038 17.6605C26.8974 17.7527 27.0223 17.8062 27.1536 17.8103C27.3505 17.8158 27.9938 17.9187 27.9938 18.9957V20.6813C27.9938 20.9571 28.2175 21.1808 28.4933 21.1808H28.7662C28.7687 21.1808 28.9931 21.1948 28.9931 21.6925C29.0146 21.8783 28.9069 22.0551 28.7317 22.1208V22.1224Z" fill="white"/>
<path d="M26.5678 29.4272C26.5671 29.4027 26.5646 29.378 26.5603 29.3538C26.4285 28.9256 26.2709 28.5058 26.0886 28.0966C25.9527 27.7995 25.7224 27.5556 25.4335 27.403C23.2854 26.2493 20.9687 25.4413 18.5687 25.0095C18.3422 24.977 18.1224 25.1026 18.0355 25.3144L16.5189 29.002H13.4808L11.9642 25.3144C11.8773 25.1026 11.6577 24.977 11.431 25.0095C9.03194 25.4416 6.71569 26.2493 4.56825 27.403C4.27752 27.557 4.04603 27.8029 3.91016 28.1025C3.72854 28.5092 3.57139 28.9265 3.43941 29.3519C3.43529 29.3762 3.43278 29.4007 3.43186 29.4254C3.425 29.4503 3.41997 29.4759 3.41699 29.5018C3.41699 29.5107 3.42134 29.5178 3.42202 29.5267C3.42523 29.5605 3.43209 29.5942 3.44238 29.6266C3.44856 29.6566 3.45748 29.6859 3.46892 29.714C3.4831 29.7415 3.4998 29.7673 3.51878 29.7916C3.53662 29.8186 3.55698 29.8437 3.5794 29.8671C3.60227 29.8858 3.62698 29.9025 3.65283 29.9169C3.68165 29.9371 3.71253 29.9538 3.74524 29.967C3.75324 29.967 3.75873 29.9759 3.76674 29.9785C3.81523 29.9933 3.86579 30.0009 3.91657 30.0009H26.0831C26.1339 30.0009 26.1844 29.9933 26.2332 29.9785C26.2409 29.9785 26.2464 29.9695 26.2544 29.967C26.2872 29.9535 26.3183 29.9368 26.3475 29.9169C26.3732 29.9023 26.3976 29.8856 26.4205 29.8671C26.4619 29.8202 26.4994 29.7701 26.5328 29.717C26.5443 29.6886 26.5532 29.6591 26.5594 29.6292C26.5697 29.5967 26.5765 29.5631 26.5799 29.5292C26.5799 29.5203 26.5847 29.5132 26.5847 29.5043C26.5813 29.4782 26.5758 29.4523 26.5678 29.4272ZM18.8096 26.0594C20.9581 26.5004 23.0317 27.25 24.9659 28.2844C25.0588 28.3331 25.1331 28.4111 25.1773 28.5063C25.2487 28.6662 25.3157 28.8331 25.3806 29.002H17.5984L18.8096 26.0594ZM5.03603 28.2839C6.96937 27.2496 9.04223 26.5002 11.1901 26.0594L12.4016 29.002H4.61926C4.68377 28.8336 4.75056 28.6673 4.81919 28.5083C4.86402 28.4113 4.94042 28.3322 5.03603 28.2839Z" fill="white"/>
<path d="M24.3493 7.91503C24.3493 7.8981 24.3532 7.88254 24.3493 7.86516C24.3452 7.84755 24.3383 7.8416 24.3346 7.82856C24.1434 6.76834 23.7715 5.74883 23.2353 4.81442C23.2312 4.79749 23.2257 4.78079 23.2193 4.76455C23.2067 4.74785 23.1928 4.7323 23.1779 4.71743C22.6362 3.79514 21.9438 2.97052 21.1293 2.27743C21.1194 2.26371 21.1089 2.25067 21.0977 2.23809C21.0888 2.23054 21.0778 2.22894 21.0682 2.22208C20.2408 1.53447 19.3025 0.992583 18.2933 0.619504C18.2787 0.608982 18.2634 0.599603 18.2473 0.590911C18.2309 0.58748 18.2142 0.584964 18.1975 0.583591C16.134 -0.170116 13.8708 -0.170116 11.8073 0.583591C11.7906 0.584964 11.7739 0.58748 11.7575 0.590911C11.7414 0.599603 11.7261 0.608982 11.7115 0.619504C10.7004 0.992354 9.76007 1.53447 8.93111 2.22299C8.9215 2.23008 8.91052 2.23145 8.9016 2.239C8.89039 2.25158 8.87987 2.26485 8.87003 2.27858C8.05548 2.97144 7.36285 3.79628 6.82141 4.71857C6.80631 4.73299 6.79259 4.74877 6.77978 4.76547C6.77338 4.78171 6.76811 4.79841 6.764 4.81533C6.2276 5.74975 5.85566 6.76925 5.66466 7.8297C5.661 7.84251 5.65254 7.85258 5.65002 7.86608C5.6475 7.87957 5.65254 7.89856 5.65002 7.91594C5.4565 8.98051 5.4565 10.0712 5.65002 11.1355V11.165C5.65002 11.1751 5.65803 11.1831 5.66054 11.1936C5.85314 12.2639 6.22782 13.2935 6.76834 14.2372C6.77292 14.2457 6.77246 14.2546 6.77749 14.2631C6.78573 14.2754 6.79511 14.2873 6.80494 14.2986C7.58701 15.6365 8.68521 16.7619 10.0035 17.5767V17.6226C9.52126 17.829 9.00408 18.3592 9.00408 19.5079C8.9645 20.4993 9.69053 21.356 10.675 21.4792C11.0184 22.1822 11.2835 22.9208 11.466 23.6814C11.5351 24.086 11.7659 24.4451 12.1051 24.6764L14.4486 26.2348C14.7828 26.4578 15.2181 26.4578 15.5521 26.2348L17.9006 24.6743C18.2393 24.4426 18.4692 24.083 18.5378 23.6784C18.7208 22.9169 18.9869 22.1776 19.3307 21.4738C19.5553 21.4353 19.7728 21.3633 19.9759 21.2599C20.6356 20.9323 21.0371 20.2436 20.9968 19.5079C20.9968 18.3587 20.4796 17.829 19.9975 17.6226V17.5767C21.3155 16.7614 22.4137 15.6351 23.1955 14.2967C23.2053 14.2855 23.2145 14.2736 23.223 14.2613C23.228 14.2528 23.2273 14.2437 23.2319 14.2352C23.7724 13.2914 24.1471 12.2621 24.3397 11.1915C24.3422 11.181 24.3481 11.173 24.3502 11.1632C24.3523 11.1531 24.3502 11.1435 24.3502 11.1337C24.5437 10.0693 24.5437 8.97891 24.3502 7.91457L24.3493 7.91503ZM19.5221 20.3694C19.3586 20.4506 19.1802 20.4975 18.9978 20.5073C18.8078 20.5064 18.6332 20.6135 18.5481 20.7836C18.1135 21.6483 17.7782 22.5594 17.5488 23.4995C17.5282 23.6379 17.4527 23.7619 17.3395 23.8438L15.0003 25.4045L12.6608 23.8454C12.5468 23.7642 12.4707 23.6404 12.4494 23.502C12.2202 22.561 11.8851 21.649 11.45 20.7836C11.3654 20.6144 11.1922 20.5073 11.0028 20.5073C10.7329 20.5247 10.4685 20.425 10.277 20.2337C10.0858 20.0425 9.98607 19.7781 10.0035 19.5079C10.0035 18.5882 10.4317 18.5141 10.503 18.5086C10.7791 18.5086 11.0028 18.2849 11.0028 18.009V15.5205C11.0008 15.2165 11.0701 14.9162 11.2053 14.644C11.6024 13.8479 12.4908 12.5123 14.001 12.5123C16.284 12.5123 16.284 12.5123 16.9707 13.1903L17.1455 13.3653C17.2393 13.4588 17.3665 13.5117 17.4989 13.5117C17.5597 13.5117 18.9978 13.5345 18.9978 15.5104V18.009C18.9997 18.2624 19.1925 18.4736 19.4446 18.498C19.4581 18.498 19.4697 18.5072 19.4837 18.5081C19.569 18.5141 19.9975 18.5882 19.9975 19.5075C20.037 19.8661 19.8467 20.2111 19.5221 20.3689V20.3694ZM19.9975 16.3748V15.5104C19.9975 13.3273 18.6126 12.6232 17.7183 12.5242L17.6757 12.4819C16.6953 11.5129 16.3881 11.5129 14.001 11.5129C11.9523 11.5129 10.8089 13.1953 10.3107 14.1977C10.1062 14.6085 10.0009 15.0616 10.0035 15.5205V16.3748C9.18021 15.7762 8.47133 15.0342 7.91114 14.1842L8.28102 13.9708C8.43679 13.8822 8.53332 13.7169 8.53378 13.5375C8.53401 13.3582 8.43839 13.1926 8.28285 13.1031C8.1273 13.0139 7.93608 13.0146 7.78122 13.1054L7.41111 13.3188C7.11786 12.733 6.89324 12.1152 6.74181 11.4779L7.16155 11.4034C7.3434 11.3789 7.49712 11.257 7.56208 11.0854C7.62704 10.9141 7.59296 10.7208 7.47333 10.5819C7.35347 10.4431 7.1675 10.3809 6.98817 10.42L6.56591 10.4939C6.48516 9.84333 6.48516 9.18501 6.56591 8.53423L6.98771 8.60857C7.01653 8.61361 7.04581 8.61612 7.07532 8.61612C7.33334 8.61452 7.54767 8.41666 7.57009 8.15955C7.59227 7.90244 7.415 7.67073 7.16109 7.62475L6.74341 7.55087C6.89484 6.91382 7.12015 6.29667 7.41454 5.71178L7.78076 5.92268C7.93539 6.01349 8.12685 6.0144 8.28239 5.92496C8.43794 5.83575 8.53355 5.66992 8.53309 5.49058C8.53287 5.31125 8.43634 5.14587 8.28056 5.05734L7.91114 4.84438C8.27347 4.29906 8.6971 3.79697 9.17403 3.34841L9.44372 3.6707C9.55855 3.80749 9.73742 3.87268 9.91333 3.8418C10.0892 3.81092 10.2352 3.68855 10.2962 3.52065C10.3575 3.35298 10.3246 3.16541 10.2098 3.02862L9.93986 2.70678C10.4639 2.31334 11.0314 1.9819 11.6314 1.71884L11.7783 2.12212C11.8368 2.29321 11.9832 2.41925 12.1612 2.45173C12.3391 2.48444 12.5208 2.41834 12.6361 2.27903C12.7513 2.13973 12.7824 1.94896 12.7173 1.78037L12.5704 1.3771C13.1988 1.19182 13.8466 1.08042 14.5008 1.04474V1.46905C14.5008 1.74492 14.7245 1.96863 15.0003 1.96863C15.2764 1.96863 15.5001 1.74492 15.5001 1.46905V1.04474C16.1543 1.08042 16.8019 1.19228 17.4305 1.37756L17.2834 1.78083C17.2185 1.94941 17.2493 2.14019 17.3649 2.27949C17.4801 2.41879 17.6618 2.4849 17.8395 2.45242C18.0175 2.41971 18.1638 2.29367 18.2224 2.12257L18.3693 1.7193C18.9693 1.98212 19.5365 2.31357 20.0604 2.70678L19.7904 3.02862C19.6132 3.23998 19.6408 3.55519 19.8524 3.73269C20.064 3.90997 20.3792 3.88206 20.5565 3.6707L20.8264 3.34841C21.3031 3.79697 21.7267 4.29906 22.0891 4.84438L21.7199 5.05734C21.5639 5.14587 21.4676 5.31125 21.4671 5.49058C21.4667 5.66992 21.5625 5.83575 21.7178 5.92496C21.8734 6.0144 22.0648 6.01349 22.2195 5.92268L22.5857 5.71178C22.8803 6.29667 23.1054 6.91382 23.2568 7.55087L22.8391 7.62475C22.5852 7.67073 22.4079 7.90244 22.4304 8.15955C22.4525 8.41666 22.6669 8.61452 22.9251 8.61612C22.9544 8.61612 22.9837 8.61361 23.0125 8.60857L23.4343 8.53423C23.5153 9.18501 23.5153 9.84333 23.4343 10.4939L23.0121 10.42C22.8329 10.3809 22.6467 10.4431 22.5269 10.5819C22.4073 10.7208 22.3732 10.9141 22.4381 11.0854C22.5031 11.257 22.6568 11.3789 22.8387 11.4034L23.2584 11.4779C23.107 12.1152 22.8824 12.733 22.5893 13.3188L22.219 13.1054C22.0644 13.0146 21.8729 13.0139 21.7174 13.1031C21.5618 13.1926 21.4662 13.3582 21.4667 13.5375C21.4669 13.7169 21.5634 13.8822 21.7192 13.9708L22.0895 14.1842C21.5291 15.034 20.8205 15.776 19.9975 16.3748Z" fill="white"/>
<path d="M19.7339 9.01423H16.3522C16.2053 8.61965 15.894 8.30856 15.4997 8.16171V3.36017C15.4997 3.08431 15.2759 2.8606 14.9999 2.8606C14.724 2.8606 14.5003 3.08431 14.5003 3.36017V8.16171C13.8726 8.3916 13.4847 9.02201 13.5627 9.68582C13.6407 10.3496 14.164 10.8732 14.8281 10.9512C15.4919 11.0292 16.1223 10.6413 16.3522 10.0136H19.7339C20.01 10.0136 20.2337 9.7899 20.2337 9.51404C20.2337 9.23794 20.01 9.01423 19.7339 9.01423ZM14.9999 9.96375C14.7535 9.96237 14.5547 9.76199 14.5552 9.51564C14.5556 9.26928 14.7553 9.06959 15.0017 9.06913C15.2478 9.06868 15.4482 9.26768 15.4496 9.51404C15.4496 9.76222 15.2483 9.96375 14.9999 9.96375Z" fill="white"/>
</g>
<defs>
<clipPath id="clip0_2962_52157">
<rect width="30" height="30" fill="white"/>
</clipPath>
</defs>
</svg>
